<?xml version="1.0" encoding="UTF-8"?>
<svg viewBox="0 0 328.5 429.3375" xmlns="http://www.w3.org/2000/svg">
 <defs>
  <clipPath id="a">
   <path d="m0 0h1095v1431h-1095v-1431z"/>
  </clipPath>
 </defs>
 <g transform="matrix(1.25 0 0 -1.25 0 429.34)">
  <g transform="scale(.24)">
   <g clip-path="url(#a)">
    <path d="m1095 109.78c0-60.636-49.14-109.78-109.75-109.78h-875.48c-60.586 0-109.75 49.141-109.75 109.78v1211.6c0 60.64 49.168 109.78 109.75 109.78h875.48c60.61 0 109.75-49.14 109.75-109.78v-1211.6" fill="#8cca4e"/>
    <path d="m54.461 1157.5v195.49h159.38v-45.61h-95.313v-27.97h80.665v-45.61h-80.665v-30.69h99.165v-45.61h-163.23" fill="#fff"/>
    <path d="m334.98 1294.1-19.785-70.08h40.399l-20.614 70.08zm-102.05-136.57 70.051 195.49h65.128l70.079-195.49h-63.797l-7.645 25.77h-63.765l-7.352-25.77h-62.699" fill="#fff"/>
    <path d="m521.87 1268.6h25.238c19.813 0 30.399 4.9 30.399 18.48 0 13.87-10.828 20.37-25.774 20.37h-29.863v-38.85zm0-42.89v-68.14h-64.09v195.49h92.293c65.184 0 86.653-17.64 86.653-55.66 0-22.54-10.078-41.55-32.856-47.78 20.668-7.62 33.098-12.49 33.098-51.87 0-25.53-0.774-34.22 6.789-34.22v-5.96h-64.859c-1.688 4.36-3.266 16.84-3.266 34.22 0 25.51-4.328 33.92-34.191 33.92h-19.571" fill="#fff"/>
    <path d="m656.11 1353h179.16v-51.31h-57.563v-144.18h-64.062v144.18h-57.532v51.31" fill="#fff"/>
    <path d="m862.48 1157.5v195.49h64.063v-65.98h60.582v65.98h64.061v-195.49h-64.061v75.74h-60.582v-75.74h-64.063" fill="#fff"/>
    <path d="m298.832,759.949 2.246,1.574 2.246,1.5 2.27,1.442 2.355,1.418 2.324,1.34 2.356,1.304 2.484,1.207 2.489,1.149 2.539,1.125 2.699,1.066 2.781.992 2.781.989 2.969.906 3.02.805 3.074.855 3.262.719 3.371.699 3.527.695 3.609.563v4.437l-5.238.243-4.496.211-4.035.187-3.473.133-3.051.187-2.648.164-2.297.129-2.086.137-1.844.188-1.714.132-1.629.188-1.629.187-1.633.188-1.766.262-1.898.273-2.082.344-1.875.804-2.137.934-2.301,1.125-2.484,1.148-2.621,1.286-2.672,1.418-2.648,1.441-2.649,1.5-1.23.773-1.254.774-1.18.832-1.121.801-1.07.75-1.067.851-1.015.805-.805.824-.828.836-.723.797-.64.832-.563.773-.398.829-.297.75-.188.777-.105.801 1.281.269 1.34.293 1.308.32 1.231.399 2.594.828 2.539.856 2.566.96 2.539,1.075 2.488,1.125 2.567,1.148 2.566,1.231 2.461,1.253 2.567,1.313 2.406,1.336 2.484,1.332 2.567,1.312 2.488,1.34 2.488,1.332 11.629,7.973 11.199,7.699 5.403,3.688 5.32,3.609 1.125.75 4.195,2.777 5.243,3.477 5.183,3.344 5.137,3.234 5.133,3.207 5.105,3.074 5.082,2.996 5.106,2.887 5.105,2.836 5.16,2.727 5.215,2.648 5.266,2.512 5.32,2.484 5.352,2.356 5.507,2.273 5.582,2.137 5.7,2.082 5.8,1.98 5.911,1.903 6.039,1.761 6.23,1.711 6.391,1.575 6.574,1.5 6.769,1.363 6.918,1.312 7.114,1.2 7.195.351 7.164.32 7.168.348 7.164.375 7.192.32 7.168.375 7.164.266 7.191.348 7.164.324 7.164.371 7.25.266 7.164.324 7.164.371 7.246.266 7.164.296 7.164.293 3.317,1.043 3.262,1.075 3.261,1.148 3.207,1.148 3.184,1.176 3.156,1.254 3.074,1.231 3.098,1.336 3.051,1.285 3.101,1.363 2.996,1.391 2.997,1.445 3.019,1.473 2.938,1.441 3.05,1.5 2.965,1.547 2.887,1.578 2.969,1.523 2.941,1.661 2.996,1.656 5.801,3.312 5.855,3.426 5.934,3.527 5.988,3.61 5.993,3.691 6.042,3.715 4.145,1.789 4.676,1.981 5.027,2.113 5.481,2.219 5.75,2.324 6.121,2.355 6.308,2.352 6.657,2.379 6.769,2.301 6.871,2.195 7.031,2.105 7.11,1.957 7.113,1.739 7.059,1.492 7.054,1.262 7.008.961 6.789.667 6.66.293 1.95-.05c-72.668,65.792-169.051,105.872-274.766,105.872-3.559,0-7.086-.08-10.563-.24-221.32-5.62-398.984-186.648-398.984-409.281 0-108.574 42.297-207.125 111.223-280.383l-.453,4.868-.911,7.355-1.07,7.379-1.23,7.352-1.309,7.351-1.418,7.324-1.496,7.356-1.523,7.301-1.633,7.246-3.235,14.57-3.179,14.461-1.5,7.246-1.442,7.215-1.34,7.199-1.253,7.191-1.176,7.192-.961,7.16-.781,7.195-.641,7.164-.426,7.141-.16,7.164v7.168l.293,7.059 .535,7.136 .883,7.137 1.203,7.086 1.524,7.059 1.23,2.726 1.738,3.582 2.086,4.36 2.059,4.601 1.015,2.27 .883,2.246 .828,2.137 .59,1.984 .266.933 .215.852 .183.805 .11.801v1.257l-.055.508-.238.457-.59-.055-.695-.082-.723-.132-.856-.321-1.921-.672-2.622-.96-1.66-.586-1.898-.618-2.192-.691-2.433-.723-2.887-.804-3.152-.852-3.559-.914-3.984-.961h-16.68l-4.121-.051-4.144-.054-4.141-.032-4.094-.101 2.246,1.012 2.274,1.101 2.246,1.227 2.351,1.23 2.379,1.363 2.434,1.364 2.406,1.5 2.406,1.468 2.489,1.606 2.379,1.652 2.46,1.715 2.43,1.711 2.383,1.793 2.352,1.871 2.324,1.899 2.301,1.925 2.328,1.973 2.136,2.035 2.192,2.059 2.062,2.086 2.028,2.168 1.953,2.164 1.843,2.191 1.793,2.297 1.633,2.168 1.524,2.355 1.523,2.325 1.281,2.3 1.204,2.325 1.125,2.355 .937,2.402 .746,2.356 .453.051 .348.136 .402.157 .481.297 .457.32 .508.347 .453.458 .613.48 1.07,1.039 1.043,1.258 1.121,1.336 1.125,1.422 1.071,1.519 1.015,1.418 .989,1.5 .855,1.387 .777,1.336 .559,1.203 .512.988 .293.883h.402l.426.082 .402.16 .348.215 .508.188 .32.265 .426.297 .48.399 .805.75 .773.933 .805.961 .801,1.07 .722,1.043 .774,1.125 .64,1.067 .672,1.023 1.067,1.817 .883,1.386 4.972,4.813 4.735,4.519 2.378,2.114 2.301,2.082 2.192,2.007 2.246,2.004 2.219,1.871 2.246,1.848 2.136,1.738 2.246,1.684 2.141,1.656" fill="#fff"/>
    <path d="m737.492,577.797-.215.078c.051-.16.161-.348.27-.508l-.055.43" fill="#148755"/>
    <path d="m726.691,598.117-.398,1.067-.805.265c.508-.719.961-1.441 1.414-2.164l-.211.832" fill="#148755"/>
    <path d="m875.586,946.488-1.125-.265-1.309-.325-1.312-.265-1.305-.297-1.285-.293-1.258-.293-1.308-.297h-5.11l-4.972-.055-4.84-.023-4.727-.109-4.68-.133-4.523-.133-4.492-.238-4.41-.16-4.25-.297-4.282-.293-4.14-.399-4.09-.375-4.039-.453-4.09-.512-3.93-.562-3.957-.641-3.957-.668-3.929-.722-3.903-.825-3.906-.882-3.902-.887-3.93-1.016-3.957-1.121-3.984-1.179-3.957-1.254-4.063-1.282-4.117-1.418-4.117-1.5-4.2-1.578-4.25-1.656-4.332-1.766-4.464-1.839-.11-.832-.054-.75-.047-.774v-.805l-2.809-1.043-2.543-1.203-2.433-1.363-2.192-1.469-2.035-1.66-1.816-1.738-1.657-1.922-1.472-2.004-1.364-2.141-1.117-2.164-1.019-2.277-.961-2.457-.723-2.457-.562-2.488-.481-2.594-.375-2.672-.215-2.703-.078-2.699-.055-2.754 .133-2.731 .164-2.832 .289-2.777 .375-2.785 .403-2.778 .617-2.781 .508-2.722 .718-2.676 .645-2.676 .773-2.621 .829-2.539 .91-2.512 .804-2.406 2.536-3.984 2.144-3.559 1.977-3.102 1.789-2.777 1.578-2.512 1.472-2.3 1.442-2.141 1.367-2.086 1.359-2.031 1.473-2.004 1.606-2.168 1.656-2.379 1.894-2.566 2.145-2.833 2.379-3.265 2.699-3.606 1.684-3.5 1.707-3.535 1.632-3.609 1.637-3.504 1.52-3.551 1.629-3.586 1.523-3.578 1.473-3.558 1.5-3.61 1.418-3.605 1.414-3.668 1.418-3.664 1.336-3.606 1.285-3.719 1.308-3.636 1.227-3.742 1.207-3.715 1.172-3.743 1.074-3.796 1.125-3.746 1.066-3.821 1.016-3.879 1.016-3.797 .91-3.902 .906-3.93 .883-3.906 .855-3.953 .75-3.934 .723-4.039 .723-4.031 .613-4.094 .617-4.062v-38.606l-.781-3.504-.824-3.453-.883-3.339-.883-3.368-.91-3.371-.934-3.312-1.019-3.289-.961-3.289-1.067-3.262-.992-3.234-1.121-3.184-1.07-3.234-1.121-3.207-1.125-3.184-1.176-3.18-1.203-3.183-2.406-6.336-2.567-6.364-2.676-6.39-2.644-6.36-2.809-6.39-2.832-6.528-1.23-2.91-1.633-3.691-2.941-6.606-.559,1.391-.453,1.395-.484,1.332-.399,1.336-.805,2.675-.613,2.645-.562,2.57-.454,2.594-.429,2.512-.293,2.566-.348,2.488-.238,2.512-.164,2.516-.211,2.539-.164,2.484-.242,2.512-.188,2.543-.156,2.164c-.109.187-.16.348-.27.558l-.562.188-.664.375-.696.484-.671.453-.563.536-.613.586-.531.562-.485.617-.453.696-.43.722-.425.719-.399.699-.324.797-.348.781-.265.825-.297.75-.559,1.66-.453,1.574-.43,1.578-.402,1.578-.348,1.496-.371,1.34-.058.371c-.481.723-.934,1.445-1.414,2.164l-.293.078-.856.243-.351.109-.375.055h-.614l-.293-.055-.425-.055-.352-.109-.398-.129-1.016-.402-1.309-.508-.32-2.406-.351-2.379-.454-2.274-.425-2.219-.539-2.164-.586-2.136-.641-2.035-.668-1.981-.773-1.949-.805-1.899-.805-1.898-.883-1.844-.961-1.765-1.015-1.766-.961-1.789-1.07-1.684-1.067-1.765-1.125-1.66-1.207-1.762-1.176-1.66-2.484-3.395-2.672-3.449-2.785-3.477-2.91-3.632-2.887-3.723-3.051-3.82-.828-.696-.801-.562-.859-.563-.773-.508-1.473-1.011-1.363-1.016-.641-.512-.586-.609-.559-.648-.46-.692-.422-.773-.352-.832-.297-.961-.238-1.071-4.707-3.339-4.676-3.293-4.68-3.235-4.543-3.261-9.148-6.254-8.953-6.18-4.309-3.102-4.328-3.074-4.25-3.152-4.172-3.156-4.066-3.18-4.113-3.235-3.825-3.265-3.929-3.34-3.746-3.395-3.606-3.476-3.609-3.637-3.371-3.719-3.395-3.82-3.133-3.875-3.097-4.066-2.887-4.223-2.914-4.359-2.59-4.516-2.492-4.707-2.43-4.84-2.195-5.027-2.086-5.266-1.898-5.453-1.708-5.672-1.738,2.137-1.527,2.117-1.469,2.086-1.363,2.086-1.258,2.137-1.121,2.058-1.043,2.035-1.02,2.083-.906,2.085-.722,2.004-.774,2.086-.562,2.059-.614,2.031-.453,2.09-.484,2.059-.43,2.109-.293,2.004-.265,2.14-.321,2.11-.187,2.113-.16,2.145-.137,2.136-.11,2.161-.101,2.144-.188,4.383-.109,4.519-.187,4.547-.239,4.727-1.551-.426-1.523-.348-1.605-.398-1.547-.406-.375-3.711-.7-3.746-.828-3.477-1.175-3.367-1.418-3.207-1.551-3.129-1.844-2.965-1.953-2.808-2.191-2.782-2.379-2.593-2.457-2.516-2.676-2.379-2.809-2.246-2.941-2.219-2.969-2.082-3.152-2.008-3.262-1.843-3.238-1.817-3.367-1.687-3.395-1.629-3.5-1.528-3.426-1.468-3.531-1.442-3.5-1.312-3.477-1.254-3.5-1.207-3.449-1.149-3.367-1.07-6.605-2.035-6.309-1.871-12.809-2.215-12.863-2.328-12.91-2.297-12.914-2.324-12.992-2.356-12.996-2.433-12.887-2.403-13.074-2.41-12.914-2.511-12.86-2.512-12.914-2.488-12.805-2.59-3.261-.649c67.828-54.832 153.41-88.551 246.828-90.898 3.476-.086 21.066,0 21.066,0 221.274,5.64 398.961,186.617 398.961,409.273 0,94.516-32.058,181.489-85.824,250.789" fill="#fff"/>
    <path d="m72.027 83.547h-20.719v153.41h106.17v-18.363h-85.45v-47.035h75.184v-18.368h-75.184v-69.648" fill="#fff"/>
    <path d="m203.04 167.1h48.098c15.16 0 31.148 3.847 31.148 26.468 0 23.715-17.297 25.637-27.535 25.637h-51.711v-52.105zm0-83.555h-20.746v153.41h70.957c25.211 0 50.449-8.738 50.449-41.254 0-22.644-11.547-30.984-21.414-36.734 8.797-3.637 17.539-7.461 18.367-28.848l1.313-27.809c0.184-8.4996 1.254-11.707 7.699-15.339v-3.4297h-25.398c-3.051 9.3867-3.692 32.703-3.692 38.473 0 12.597-2.539 27.355-27.324 27.355h-50.211v-65.828" fill="#fff"/>
    <path d="m337.23 83.547h20.746v153.44h-20.746v-153.44z" fill="#fff"/>
    <path d="m508.82 83.547h-113.25v153.41h111.78v-18.363h-91.035v-47.035h83.976v-18.368h-83.976v-51.277h92.503v-18.371" fill="#fff"/>
    <path d="m637.66 236.96h20.106v-153.41h-23.317l-77.988 123.93h-0.398v-123.93h-20.11v153.41h24.625l76.68-123.92h0.402v123.92" fill="#fff"/>
    <path d="m712.07 101.25h40.184c26.898 0 44.438 21.18 44.438 59.867s-17.778 58.121-45.934 58.121h-38.688v-117.99zm-20.773 135.72h62.187c40 0 64.54-30.32 64.54-74.594 0-34.383-14.915-78.82-65.368-78.82h-61.359v153.41" fill="#fff"/>
    <path d="m865.27 101.92h77.746v-18.371h-98.442v153.44h20.696v-135.07" fill="#fff"/>
    <path d="m1012.9 83.547h-20.666v61.766l-57.937 91.648h24.144l44.039-73.711 43.97 73.711h24.36l-57.91-91.648v-61.766" fill="#fff"/>
   </g>
  </g>
 </g>
</svg>
