<svg width="672" height="437" viewBox="0 0 672 437" fill="none" xmlns="http://www.w3.org/2000/svg">
<path d="M399.356 183.618C412.972 183.618 424 194.581 424 208.114V217.439H423.932C423.469 227.996 420.555 241.218 408.642 252.018C395.626 263.833 373.147 271.548 335.5 271.548C297.84 271.548 275.374 263.833 262.358 252.018C250.445 241.218 247.531 227.982 247.068 217.439H247V208.101C247 194.581 258.028 183.618 271.644 183.618H399.356Z" fill="#C4C4C4"/>
<path d="M287.846 68.5397C282.43 68.5397 277.235 70.6786 273.405 74.4857C269.575 78.2928 267.423 83.4564 267.423 88.8405V142.976C267.423 148.36 269.575 153.524 273.405 157.331C277.235 161.138 282.43 163.277 287.846 163.277H383.154C388.57 163.277 393.765 161.138 397.595 157.331C401.425 153.524 403.577 148.36 403.577 142.976V88.8405C403.577 83.4564 401.425 78.2928 397.595 74.4857C393.765 70.6786 388.57 68.5397 383.154 68.5397H342.308V61.7728C342.346 60.874 342.197 59.9769 341.868 59.1386C341.54 58.3003 341.039 57.5389 340.399 56.9027C339.759 56.2665 338.993 55.7694 338.15 55.4429C337.307 55.1164 336.404 54.9676 335.5 55.0059C331.742 55.0059 328.692 58.1187 328.692 61.7728V68.5397H287.846ZM294.654 115.908C294.654 112.319 296.088 108.876 298.642 106.338C301.195 103.8 304.658 102.374 308.269 102.374C311.88 102.374 315.343 103.8 317.897 106.338C320.45 108.876 321.885 112.319 321.885 115.908C321.885 119.498 320.45 122.94 317.897 125.478C315.343 128.016 311.88 129.442 308.269 129.442C304.658 129.442 301.195 128.016 298.642 125.478C296.088 122.94 294.654 119.498 294.654 115.908ZM349.115 115.908C349.115 112.319 350.55 108.876 353.103 106.338C355.657 103.8 359.12 102.374 362.731 102.374C366.342 102.374 369.805 103.8 372.358 106.338C374.912 108.876 376.346 112.319 376.346 115.908C376.346 119.498 374.912 122.94 372.358 125.478C369.805 128.016 366.342 129.442 362.731 129.442C359.12 129.442 355.657 128.016 353.103 125.478C350.55 122.94 349.115 119.498 349.115 115.908Z" fill="#C4C4C4"/>
<path d="M453.233 48.7669C422.009 17.542 379.659 6.50518e-05 335.5 1.80926e-10C291.342 -6.50515e-05 248.992 17.5418 217.767 48.7665C186.542 79.9913 169 122.341 169 166.5C169 210.658 186.542 253.008 217.767 284.233C248.991 315.458 291.341 333 335.5 333C379.658 333 422.008 315.458 453.233 284.233C484.458 253.009 502 210.659 502 166.5C502 122.342 484.458 79.9917 453.233 48.7669ZM335.5 22.2005C370.019 22.17 403.395 34.5683 429.522 57.1273L226.127 260.523C203.568 234.395 191.17 201.019 191.2 166.5C191.2 86.9335 255.933 22.2005 335.5 22.2005ZM335.5 310.8C301.151 310.83 267.928 298.552 241.854 276.191L445.192 72.8532C467.552 98.9278 479.83 132.151 479.8 166.5C479.8 246.067 415.067 310.8 335.5 310.8Z" fill="#727070"/>
<path d="M38.592 349.8C48.384 349.8 56.128 352.264 61.824 357.192C67.52 362.056 70.368 369.032 70.368 378.12H50.112C50.112 374.28 49.088 371.24 47.04 369C45.056 366.76 42.208 365.64 38.496 365.64C34.208 365.64 31.04 366.984 28.992 369.672C27.008 372.36 26.016 376.104 26.016 380.904V387.048C26.016 391.784 27.008 395.528 28.992 398.28C31.04 400.968 34.144 402.312 38.304 402.312C42.4 402.312 45.504 401.256 47.616 399.144C49.728 397.032 50.784 394.056 50.784 390.216H70.368C70.368 399.24 67.584 406.152 62.016 410.952C56.512 415.752 48.704 418.152 38.592 418.152C27.328 418.152 18.784 415.272 12.96 409.512C7.2 403.752 4.32 395.24 4.32 383.976C4.32 372.712 7.2 364.2 12.96 358.44C18.784 352.68 27.328 349.8 38.592 349.8ZM105.535 365.16C113.279 365.16 119.583 366.472 124.447 369.096C129.311 371.656 131.743 375.848 131.743 381.672V401.448C131.743 402.536 131.999 403.432 132.511 404.136C133.023 404.84 133.791 405.192 134.815 405.192H138.271V416.232C138.079 416.36 137.567 416.584 136.735 416.904C135.967 417.16 134.847 417.416 133.375 417.672C131.903 417.992 130.207 418.152 128.287 418.152C124.575 418.152 121.503 417.608 119.071 416.52C116.703 415.368 115.071 413.8 114.175 411.816C111.743 413.736 109.023 415.272 106.015 416.424C103.007 417.576 99.4868 418.152 95.4548 418.152C83.5508 418.152 77.5988 413.416 77.5988 403.944C77.5988 399.016 78.9108 395.272 81.5348 392.712C84.2228 390.088 88.0628 388.296 93.0548 387.336C98.0468 386.376 104.575 385.896 112.639 385.896V383.4C112.639 381.416 111.935 379.912 110.527 378.888C109.183 377.864 107.423 377.352 105.247 377.352C103.263 377.352 101.535 377.704 100.063 378.408C98.6548 379.112 97.9508 380.232 97.9508 381.768V382.152H79.1348C79.0708 381.832 79.0388 381.384 79.0388 380.808C79.0388 376.008 81.3108 372.2 85.8548 369.384C90.4628 366.568 97.0228 365.16 105.535 365.16ZM112.639 394.92C107.199 394.92 103.167 395.528 100.543 396.744C97.9828 397.896 96.7028 399.464 96.7028 401.448C96.7028 404.648 98.8788 406.248 103.231 406.248C105.727 406.248 107.903 405.576 109.759 404.232C111.679 402.888 112.639 401.224 112.639 399.24V394.92ZM178.856 365.16C185.704 365.16 190.984 367.4 194.696 371.88C198.408 376.36 200.264 382.984 200.264 391.752C200.264 400.456 198.408 407.048 194.696 411.528C190.984 415.944 185.704 418.152 178.856 418.152C172.968 418.152 168.232 416.232 164.648 412.392V435.912H145.544V366.312H161.096L162.728 373.512C166.44 367.944 171.816 365.16 178.856 365.16ZM172.904 379.272C170.088 379.272 167.976 380.264 166.568 382.248C165.16 384.232 164.456 386.824 164.456 390.024V393.192C164.456 396.392 165.16 399.016 166.568 401.064C167.976 403.048 170.088 404.04 172.904 404.04C178.408 404.04 181.16 400.744 181.16 394.152V389.064C181.16 382.536 178.408 379.272 172.904 379.272ZM243.271 366.312V379.272H232.519V398.568C232.519 400.872 232.903 402.568 233.671 403.656C234.439 404.68 235.847 405.192 237.895 405.192H243.271V416.424C241.735 416.936 239.751 417.352 237.319 417.672C234.887 417.992 232.775 418.152 230.983 418.152C225.351 418.152 220.999 417.128 217.927 415.08C214.919 413.032 213.415 409.544 213.415 404.616V379.272H206.311V366.312H214.183L218.311 350.952H232.519V366.312H243.271ZM278.343 365.16C286.663 365.16 293.383 366.952 298.503 370.536C303.687 374.056 306.279 379.464 306.279 386.76H287.751C287.751 381 284.615 378.12 278.343 378.12C272.071 378.12 268.935 381.736 268.935 388.968V394.44C268.935 401.608 272.199 405.192 278.727 405.192C285.255 405.192 288.519 402.248 288.519 396.36H306.279C306.279 403.72 303.687 409.192 298.503 412.776C293.383 416.36 286.663 418.152 278.343 418.152C269.447 418.152 262.471 415.912 257.415 411.432C252.359 406.952 249.831 400.36 249.831 391.656C249.831 382.952 252.359 376.36 257.415 371.88C262.471 367.4 269.447 365.16 278.343 365.16ZM333.677 371.592C335.725 369.544 338.125 367.976 340.877 366.888C343.629 365.736 346.509 365.16 349.517 365.16C355.405 365.16 359.821 366.792 362.765 370.056C365.709 373.32 367.181 378.024 367.181 384.168V417H348.077V386.472C348.077 384.296 347.501 382.568 346.349 381.288C345.261 379.944 343.693 379.272 341.645 379.272C339.277 379.272 337.357 380.04 335.885 381.576C334.413 383.112 333.677 385 333.677 387.24V417H314.573V347.4H333.677V371.592ZM403.66 365.16C411.404 365.16 417.708 366.472 422.572 369.096C427.436 371.656 429.868 375.848 429.868 381.672V401.448C429.868 402.536 430.124 403.432 430.636 404.136C431.148 404.84 431.916 405.192 432.94 405.192H436.396V416.232C436.204 416.36 435.692 416.584 434.86 416.904C434.092 417.16 432.972 417.416 431.5 417.672C430.028 417.992 428.332 418.152 426.412 418.152C422.7 418.152 419.628 417.608 417.196 416.52C414.828 415.368 413.196 413.8 412.3 411.816C409.868 413.736 407.148 415.272 404.14 416.424C401.132 417.576 397.612 418.152 393.58 418.152C381.676 418.152 375.724 413.416 375.724 403.944C375.724 399.016 377.036 395.272 379.66 392.712C382.348 390.088 386.188 388.296 391.18 387.336C396.172 386.376 402.7 385.896 410.764 385.896V383.4C410.764 381.416 410.06 379.912 408.652 378.888C407.308 377.864 405.548 377.352 403.372 377.352C401.388 377.352 399.66 377.704 398.188 378.408C396.78 379.112 396.076 380.232 396.076 381.768V382.152H377.26C377.196 381.832 377.164 381.384 377.164 380.808C377.164 376.008 379.436 372.2 383.98 369.384C388.588 366.568 395.148 365.16 403.66 365.16ZM410.764 394.92C405.324 394.92 401.292 395.528 398.668 396.744C396.108 397.896 394.828 399.464 394.828 401.448C394.828 404.648 397.004 406.248 401.356 406.248C403.852 406.248 406.028 405.576 407.884 404.232C409.804 402.888 410.764 401.224 410.764 399.24V394.92ZM475.467 349.8C485.259 349.8 493.003 352.264 498.699 357.192C504.395 362.056 507.243 369.032 507.243 378.12H486.987C486.987 374.28 485.963 371.24 483.915 369C481.931 366.76 479.083 365.64 475.371 365.64C471.083 365.64 467.915 366.984 465.867 369.672C463.883 372.36 462.891 376.104 462.891 380.904V387.048C462.891 391.784 463.883 395.528 465.867 398.28C467.915 400.968 471.019 402.312 475.179 402.312C479.275 402.312 482.379 401.256 484.491 399.144C486.603 397.032 487.659 394.056 487.659 390.216H507.243C507.243 399.24 504.459 406.152 498.891 410.952C493.387 415.752 485.579 418.152 475.467 418.152C464.203 418.152 455.659 415.272 449.835 409.512C444.075 403.752 441.195 395.24 441.195 383.976C441.195 372.712 444.075 364.2 449.835 358.44C455.659 352.68 464.203 349.8 475.467 349.8ZM543.562 365.16C552.458 365.16 559.434 367.432 564.49 371.976C569.61 376.456 572.17 383.016 572.17 391.656C572.17 400.296 569.61 406.888 564.49 411.432C559.434 415.912 552.458 418.152 543.562 418.152C534.666 418.152 527.69 415.912 522.634 411.432C517.578 406.952 515.05 400.36 515.05 391.656C515.05 382.952 517.578 376.36 522.634 371.88C527.69 367.4 534.666 365.16 543.562 365.16ZM543.562 378.12C537.29 378.12 534.154 381.736 534.154 388.968V394.44C534.154 401.608 537.29 405.192 543.562 405.192C549.898 405.192 553.066 401.608 553.066 394.44V388.968C553.066 381.736 549.898 378.12 543.562 378.12ZM582.057 360.36V347.4H601.161V360.36H582.057ZM582.057 417V366.312H601.161V417H582.057ZM648.298 365.16C654.186 365.16 658.602 366.792 661.546 370.056C664.49 373.32 665.962 378.024 665.962 384.168V417H646.858V386.472C646.858 384.296 646.282 382.568 645.13 381.288C644.042 379.944 642.474 379.272 640.426 379.272C638.058 379.272 636.138 380.04 634.666 381.576C633.194 383.112 632.458 385 632.458 387.24V417H613.354V366.312H629.002L630.25 373.992C632.234 371.304 634.826 369.16 638.026 367.56C641.29 365.96 644.714 365.16 648.298 365.16Z" fill="#727070"/>
</svg>
