<svg width="21" height="20" viewBox="0 0 21 20" fill="none" xmlns="http://www.w3.org/2000/svg">
<path fill-rule="evenodd" clip-rule="evenodd" d="M11 2.70306C11 0.846056 8.69 -0.00794399 7.481 1.40206L3.84 5.65006C3.74611 5.75982 3.62956 5.84795 3.49837 5.90836C3.36717 5.96878 3.22444 6.00007 3.08 6.00006H3C2.20435 6.00006 1.44129 6.31613 0.87868 6.87874C0.316071 7.44134 0 8.20441 0 9.00006V11.0001C0 11.7957 0.316071 12.5588 0.87868 13.1214C1.44129 13.684 2.20435 14.0001 3 14.0001H3.08C3.22444 14 3.36717 14.0313 3.49837 14.0917C3.62956 14.1522 3.74611 14.2403 3.84 14.3501L4.552 13.7381L3.839 14.3491L7.481 18.5991C8.69 20.0091 11 19.1541 11 17.2971V2.70306ZM14.293 7.29306C14.4805 7.10558 14.7348 7.00027 15 7.00027C15.2652 7.00027 15.5195 7.10558 15.707 7.29306L17 8.58606L18.293 7.29306C18.3852 7.19755 18.4956 7.12136 18.6176 7.06895C18.7396 7.01654 18.8708 6.98896 19.0036 6.9878C19.1364 6.98665 19.2681 7.01195 19.391 7.06223C19.5138 7.11252 19.6255 7.18677 19.7194 7.28066C19.8133 7.37455 19.8875 7.48621 19.9378 7.6091C19.9881 7.732 20.0134 7.86368 20.0123 7.99646C20.0111 8.12924 19.9835 8.26046 19.9311 8.38246C19.8787 8.50446 19.8025 8.61481 19.707 8.70706L18.414 10.0001L19.707 11.2931C19.8892 11.4817 19.99 11.7343 19.9877 11.9965C19.9854 12.2587 19.8802 12.5095 19.6948 12.6949C19.5094 12.8803 19.2586 12.9855 18.9964 12.9877C18.7342 12.99 18.4816 12.8892 18.293 12.7071L17 11.4141L15.707 12.7071C15.5184 12.8892 15.2658 12.99 15.0036 12.9877C14.7414 12.9855 14.4906 12.8803 14.3052 12.6949C14.1198 12.5095 14.0146 12.2587 14.0123 11.9965C14.01 11.7343 14.1108 11.4817 14.293 11.2931L15.586 10.0001L14.293 8.70706C14.1055 8.51953 14.0002 8.26522 14.0002 8.00006C14.0002 7.73489 14.1055 7.48058 14.293 7.29306V7.29306Z" fill="black"/>
</svg>
