<svg width="19" height="18" viewBox="0 0 19 18" fill="none" xmlns="http://www.w3.org/2000/svg">
<path fill-rule="evenodd" clip-rule="evenodd" d="M2.08 6.00004H2C1.46957 6.00004 0.960859 6.21075 0.585786 6.58582C0.210714 6.9609 0 7.46961 0 8.00004V10C0 10.5305 0.210714 11.0392 0.585786 11.4143C0.960859 11.7893 1.46957 12 2 12H2.08C2.36856 11.9999 2.65372 12.0622 2.91593 12.1827C3.17813 12.3032 3.41115 12.479 3.599 12.698L7.241 16.948C7.845 17.652 9 17.225 9 16.297V1.70304C9 0.775038 7.845 0.348038 7.24 1.05304L3.6 5.30104C3.41213 5.52039 3.17899 5.69645 2.9166 5.81711C2.65421 5.93777 2.3688 6.00018 2.08 6.00004ZM15.636 1.27504C15.5414 1.18177 15.4291 1.10829 15.3057 1.05891C15.1823 1.00953 15.0504 0.985226 14.9175 0.987427C14.7847 0.989627 14.6536 1.01828 14.5319 1.07172C14.4102 1.12517 14.3005 1.20232 14.209 1.29867C14.1174 1.39503 14.0461 1.50865 13.999 1.63291C13.9519 1.75716 13.93 1.88956 13.9347 2.02236C13.9394 2.15515 13.9704 2.28569 14.0261 2.40634C14.0818 2.52699 14.161 2.63533 14.259 2.72504C17.914 6.19704 17.914 11.803 14.259 15.275C14.161 15.3647 14.0818 15.4731 14.0261 15.5937C13.9704 15.7144 13.9394 15.8449 13.9347 15.9777C13.93 16.1105 13.9519 16.2429 13.999 16.3672C14.0461 16.4914 14.1174 16.6051 14.209 16.7014C14.3005 16.7978 14.4102 16.8749 14.5319 16.9284C14.6536 16.9818 14.7847 17.0104 14.9175 17.0126C15.0504 17.0148 15.1823 16.9905 15.3057 16.9412C15.4291 16.8918 15.5414 16.8183 15.636 16.725C20.121 12.465 20.121 5.53504 15.636 1.27504V1.27504ZM12.689 4.07504C12.4967 3.8923 12.2397 3.79344 11.9745 3.80019C11.7094 3.80694 11.4577 3.91876 11.275 4.11104C11.0923 4.30332 10.9934 4.56032 11.0002 4.82549C11.0069 5.09067 11.1187 5.3423 11.311 5.52504C13.338 7.45004 13.338 10.55 11.311 12.475C11.2158 12.5655 11.1393 12.6739 11.086 12.7939C11.0327 12.9139 11.0035 13.0433 11.0002 13.1746C10.9968 13.3059 11.0194 13.4366 11.0665 13.5591C11.1137 13.6817 11.1845 13.7938 11.275 13.889C11.4577 14.0813 11.7094 14.1931 11.9745 14.1999C12.1058 14.2032 12.2365 14.1807 12.3591 14.1335C12.4817 14.0864 12.5938 14.0155 12.689 13.925C15.546 11.211 15.546 6.78904 12.689 4.07504V4.07504Z" fill="black"/>
</svg>
