<?xml version="1.0" encoding="utf-8"?>
<!-- Generator: Adobe Illustrator 25.4.0, SVG Export Plug-In . SVG Version: 6.00 Build 0)  -->
<svg version="1.1" id="Ebene_1" xmlns="http://www.w3.org/2000/svg" xmlns:xlink="http://www.w3.org/1999/xlink" x="0px" y="0px"
	 viewBox="0 0 7252 2391.7" style="enable-background:new 0 0 7252 2391.7;" xml:space="preserve">
<style type="text/css">
	.st0{fill-rule:evenodd;clip-rule:evenodd;fill:#9D9E9E;}
	.st1{clip-path:url(#SVGID_00000067229193275440616470000003612093924255766971_);}
	.st2{fill-rule:evenodd;clip-rule:evenodd;fill:#434242;stroke:#434242;stroke-width:0.5669;stroke-miterlimit:11.3386;}
	.st3{fill-rule:evenodd;clip-rule:evenodd;fill:#332620;}
	.st4{fill-rule:evenodd;clip-rule:evenodd;fill:#C18771;}
	.st5{fill-rule:evenodd;clip-rule:evenodd;fill:#EEEEF3;}
	.st6{fill-rule:evenodd;clip-rule:evenodd;fill:#F3F3F3;stroke:#F3F3F3;stroke-width:0.5669;stroke-miterlimit:11.3386;}
	.st7{fill-rule:evenodd;clip-rule:evenodd;fill:#FEFEFE;stroke:#FEFEFE;stroke-width:0.5669;stroke-miterlimit:11.3386;}
	.st8{fill-rule:evenodd;clip-rule:evenodd;fill:#EEEEF3;stroke:#EEEEF3;stroke-width:0.5669;stroke-miterlimit:11.3386;}
	.st9{fill-rule:evenodd;clip-rule:evenodd;fill:#D3A46E;}
	.st10{fill-rule:evenodd;clip-rule:evenodd;fill:#6E4720;stroke:#6E4720;stroke-width:0.5669;stroke-miterlimit:11.3386;}
	.st11{fill-rule:evenodd;clip-rule:evenodd;fill:#53645E;}
	.st12{fill-rule:evenodd;clip-rule:evenodd;fill:#343D3A;}
	.st13{fill:none;}
	.st14{fill-rule:evenodd;clip-rule:evenodd;fill:#434242;stroke:#434242;stroke-width:0.216;stroke-miterlimit:11.3386;}
	.st15{fill-rule:evenodd;clip-rule:evenodd;fill:#5B5B5B;stroke:#5B5B5B;stroke-width:0.5669;stroke-miterlimit:11.3386;}
	.st16{fill-rule:evenodd;clip-rule:evenodd;fill:#575757;}
	.st17{fill-rule:evenodd;clip-rule:evenodd;fill:#2B2A29;}
	.st18{fill-rule:evenodd;clip-rule:evenodd;fill:#CECECE;}
	.st19{fill-rule:evenodd;clip-rule:evenodd;fill:#2B2A29;stroke:#2B2A29;stroke-width:0.5669;stroke-miterlimit:11.3386;}
	.st20{fill-rule:evenodd;clip-rule:evenodd;fill:#EBECEC;stroke:#EBECEC;stroke-width:0.5669;stroke-miterlimit:11.3386;}
	.st21{fill-rule:evenodd;clip-rule:evenodd;fill:#29282D;}
	.st22{fill-rule:evenodd;clip-rule:evenodd;fill:#D9DADA;}
	.st23{fill-rule:evenodd;clip-rule:evenodd;fill:#687737;}
	.st24{fill-rule:evenodd;clip-rule:evenodd;fill:#233122;}
	.st25{fill-rule:evenodd;clip-rule:evenodd;fill:#333E00;stroke:#233122;stroke-width:0.216;stroke-miterlimit:11.3386;}
	.st26{fill-rule:evenodd;clip-rule:evenodd;fill:#333E00;}
	.st27{fill-rule:evenodd;clip-rule:evenodd;fill:#A3AA3A;}
	.st28{fill-rule:evenodd;clip-rule:evenodd;fill:#1B2414;}
	.st29{fill-rule:evenodd;clip-rule:evenodd;fill:#333B18;}
	.st30{fill-rule:evenodd;clip-rule:evenodd;fill:#AEAEAE;}
	.st31{fill:#2B2A29;}
</style>
<g id="Capa_x0020_1">
	<polygon class="st0" points="-135.9,0 7570,0 7570,2391.7 -135.9,2391.7 	"/>
	<g>
		<defs>
			<rect id="SVGID_1_" x="1500" y="0" width="4252" height="2391.7"/>
		</defs>
		<clipPath id="SVGID_00000168081384419550620510000008847599741601600136_">
			<use xlink:href="#SVGID_1_"  style="overflow:visible;"/>
		</clipPath>
		<g style="clip-path:url(#SVGID_00000168081384419550620510000008847599741601600136_);">
			<g id="_222554976">
				<g>
					<path id="_2232125281" class="st2" d="M5082.3,1246.5l-5.4-0.6c-17.8-2.1-22.7,3.9-36.3,14.7l-1.5,1.8
						c-16.8,19.1-16.2,40.3-35.7,50.1c-2.5,1.3-12.7,8.4-14.4,8.6c-13.4,28.3-5.8,61.8-11,91.7l-0.4,2.4c-2.1,12.3-5.5,27.8,1,39
						c7.6,13.1,1-4-7.9,30.4c-3.8,14.8,38.2,46.5,49.2,57.4c8.6,8.6-7.3,2.2-6.5,23.1c0.7,18.4-11.5,22.4,28.3,38
						c0.5,0.2,19.3,5.6,21.3,5.2c2.3,1.9-0.7-0.4,1.2,1c6.2-1.5,33.1,6.4,55.6-0.6c25.6-8,21.7-4.7,38.3-25.8
						c8.2-10.5,1.6-8.4,21-12.7c22.1-4.9,32.3-26.4,34.6-47c2.6-23.6,2.3-37.2,3.6-60.9l0.2-3.1c1.7-31.4,3.8-58.8-19.3-83.6
						c-12.9-13.8-36-27.9-39.6-49.1c-3.6-21.3-32.6-50.8-50.6-62.4C5105.6,1262.6,5082.8,1246.5,5082.3,1246.5L5082.3,1246.5z"/>
					<path id="_221245424" class="st2" d="M5249.1,2413.3c-31.1-75.2-20.1-204.6-26.7-290.1c-4.2-54-5.6-65-15.6-117.8
						c-10.2-53.4,1.6-54.4-25.4-109.6c-3.8-7.7-9.7-31.3-16.6-35.4c0-0.4-90.6-151.4-98.1-162.8c0.2-1.3-6.5-33.6-7.5-40.7
						c-11-75.9-12-121.3-8.3-199.7c1.1-24.4-44.8-37.5-53.3-135.7c-3.5-40.3,23.1-99.8,88.2-36.3c14.1,21.6,28.6,69.2,44.5,101.9
						c18.5,38.1,35.2,115.4,67,143.7c4.4-18.9-35.9-39.5-15.1-52.6c3.3-10.8-24.6-19.7-23.7-38.8c2.1-1.6,52.2-17.9,53.8-17.9
						c-0.9-1.8-55.9-12.3-59.8-12c-11-13.3,6.7-44.6-15.6-47.7c-23.8-3.3-15-41.8-32.3-72.9c-10.5-18.8-76.7-49.5-10-47
						c3.3,0.1,43.2,27.7,53.3,31.1c9.2,3.1,56,31.4,58.3,35.8c9.1,17.6,49,16,52.5,24.6c69.8,18.2,47.7,106.4,39.7,156.8
						c-10.9,69.1-10.3,67.5-10.3,140.4c0,75.2,0.6,59.1,21.6,131.5l0.3,4.3c1,12.8,143.6,311.9,156.3,335.9l10,18.8
						c39.6,74.7,22.5,68.1,91,127.5c5.9,5.1,32.4,39.3,35.4,40.2c13.8,53.8-24.8,41.9-81,64.3c-45.8,18.2-104.8,51.1-139.2,87.7
						c-23.1,24.5-77-14.8-110.2-14.8C5265.6,2426.2,5240.8,2425.1,5249.1,2413.3L5249.1,2413.3z"/>
					<path id="_222550608" class="st2" d="M4989,1317.5c-13.6,3.4-31.9,53.2-31.9,66.6c0,12.4-1.5,23,3.7,34.1
						c5.6,12.2,10.6,27.6,12.3,41.1l0.1,1c2.1,16.8,7,33.1,23.9,40.9c14.4,6.6,21.3,10.1,32.3-7.3c4.9-7.8,11.9-30.6,11.9-39.5v-1.4
						c0-13.3-16.4-23.2-21.1-37.9c-1-3.3-14.7-26.7-18.1-36.9c-4-12.1-5.1-11.6-8.3-25.8C4990,1334.9,4989,1337.4,4989,1317.5
						L4989,1317.5z"/>
					<path id="_225147888" class="st2" d="M4970.6,1483.7c-4,6-2.8,27,2.3,33.7c9.6,12.6,12.6,35.3,14.4,51
						c1,8.9,4.3,27.6,13.2,32.4c7.8,4.3,12.6-2.4,18.3-6c4.4-2.8,10.5-17.2,12.8-23.6l0.2-0.6c1.3-3.8,3.6-4.2,4.7-10
						c1.7-9,2.6-9.2,0.6-18.3l0-0.9c0-2-9.5-17.5-11.1-22.6l-0.3-0.5c-1.2-2.3-1.9-9.7-2.3-10.5c-10.4,2.4-19.5,3.4-30.1-0.3
						c-14.2-4.9-12-10.7-20-18.5C4972.5,1488.2,4970.1,1484.4,4970.6,1483.7L4970.6,1483.7z"/>
					<path id="_225159168" class="st2" d="M5007.4,1289.8c-5.7,16,6.9,36.3,9.1,42.8c2.4,7.3,6.5,12.3,13.3,16.1
						c8.7,4.9,22.5,0.4,31.5-2.9c4.1-1.5,9-3.7,12.3-6.5c7.8-6.6,8.9-17.7,7.1-27.4c-1-5.4-8.1-16.5-11.4-21.4
						c-0.6-0.8-11.1-17.2-11.3-17.4c-8.2-4.1-7.5-6.1-18.8-6.5C5027.6,1266.2,5011.7,1277.7,5007.4,1289.8L5007.4,1289.8z"/>
					<path id="_225157872" class="st2" d="M4722.5,1114.2c2.9,2.2-4.7,97.5,86.2,171.2c14.7,11.9,43.9,19.1,61.9,22.7
						c49,9.7,94.5-7.6,115.5-48.3c-0.4-0.1-38.2,9-48.2,5.9c-20.4-6.1-37,4.6-65.7-9.2c-17.7-8.5-24.8-11.5-41.8-20.7l-5.1-2.7
						c-3.4-1.8-13.5-6.1-17.3-6.7c-0.9-1.9-12.2-5.8-15.2-8.1l-2.3-1.8c-9.6-7.6-57.9-79.4-59.3-90.2l-0.8-1
						c-0.9-1.2-5.5-10-5.2-10.8C4723.9,1113.7,4722.6,1114.3,4722.5,1114.2z"/>
					<path id="_222542664" class="st2" d="M5037.6,1232.3l3.4,1.7c3.7,1.8,14.7,13.8,14.9,14.1c5.7,9.6,4.7,6,4.7,16.4
						c-2.3,0-8-3.4-15.5-4.4c-13.8-1.9-16.8-2.1-30.1,5.4c0,0.4-9.9,17.8-13.9,23.5c-3.4,4.7-23.3-8.8-30.8-19.7
						C4968.9,1267.4,5037.9,1233.9,5037.6,1232.3L5037.6,1232.3z"/>
					<circle id="_222542568" class="st2" cx="4911.4" cy="1089.6" r="190.5"/>
					<path id="_225147024" class="st2" d="M4975,1442.7c-0.2,0.6,4.1,10.6,4.7,15.7c0.5,4.3,1.1,11.7,2.5,15.4
						c1.8,4.7,1.5,3.6,3.5,8c1.3,3,6.1,10,9.9,7.9c3.8-2.1-9.1-25.4-10.3-31.1c-0.4-2.2-4.6-9.1-6-14.3c-0.9-3.3-1.6-6.7-4.4-6.7
						C4974.9,1439.3,4975.4,1441.5,4975,1442.7L4975,1442.7z"/>
					<path id="_420802392" class="st2" d="M4990.7,1559.9l0.6,1.1c1.4,2.6-0.4,8.7,2.6,16l0.3,0.7c3.1,7.4,3.2,11.1,7.9,17.7
						c1.2,1.7,1.3,1.1,4,1.1c0-4.8-5.9-20.4-7.5-25.2c-0.8-2.6-6.5-21.2-8-22.1C4990.3,1550,4990.1,1558.8,4990.7,1559.9
						L4990.7,1559.9z"/>
					<circle id="_222555312" class="st2" cx="4911.4" cy="1089.6" r="160.7"/>
					<circle id="_225147192" class="st2" cx="4872.6" cy="1170" r="2"/>
					<circle id="_420743992" class="st2" cx="4840.3" cy="1129.2" r="6"/>
					<circle id="_222630888" class="st2" cx="4834.5" cy="1064.2" r="4.7"/>
					<circle id="_225158688" class="st2" cx="4853" cy="1014.3" r="4.7"/>
					<circle id="_221241128" class="st2" cx="4912.5" cy="1041" r="7"/>
					<circle id="_225158376" class="st2" cx="5029.6" cy="1063.9" r="4.5"/>
					<circle id="_222550224" class="st2" cx="5032.1" cy="1126.2" r="4.5"/>
					<circle id="_222549936" class="st2" cx="5001.7" cy="1170.5" r="4"/>
					<circle id="_222549624" class="st2" cx="4965.6" cy="1190.7" r="3.7"/>
					<circle id="_422188472" class="st2" cx="4907.5" cy="1204.9" r="3.5"/>
					<circle id="_422188136" class="st2" cx="4842.2" cy="1195.9" r="4"/>
					<circle id="_422188688" class="st2" cx="4791.7" cy="1117" r="4.2"/>
					<circle id="_422188328" class="st2" cx="4788.7" cy="1076.1" r="2.2"/>
					<circle id="_222756128" class="st2" cx="4799.1" cy="1038.2" r="4.2"/>
					<circle id="_422188352" class="st2" cx="4832.3" cy="990.7" r="3"/>
					<circle id="_422188520" class="st2" cx="4852.2" cy="963.8" r="4"/>
					<circle id="_222555552" class="st2" cx="4889.8" cy="1101.5" r="3.7"/>
					<circle id="_422188640" class="st2" cx="4961.1" cy="1067.1" r="4.7"/>
					<circle id="_422188736" class="st2" cx="4979.8" cy="980.2" r="4"/>
					<circle id="_222628488" class="st2" cx="4981.8" cy="1136.2" r="1.5"/>
					<circle id="_422188808" class="st2" cx="4909" cy="1159.6" r="3.5"/>
					<circle id="_420802992" class="st2" cx="4943.6" cy="1110.5" r="3.2"/>
					<circle id="_420801408" class="st2" cx="4896.6" cy="973.7" r="5.5"/>
					<circle id="_420801576" class="st2" cx="4944.9" cy="1003.6" r="5"/>
					<circle id="_223212288" class="st2" cx="4982" cy="1032.3" r="3.2"/>
					<path id="_222633240" class="st2" d="M5238.9,2369.1l8.9-2.8c1.1-0.3,65.5-44.7,78-51.6c96.5-53.2,128.5-85.2,246.9-85.2
						c3.9,0,31.6,16.6,13.3,28l-5.3,3.3c-11.9,7.4-63.5,24.4-64,24.9h3.3c58.9,0,48.4-10.7,72.2-13.5c17.4-2.1,12.5-9,37.9,7.9
						c13.9,9.2-17.6,16.1,14.3,27.2c36.7,12.7,3.9,21.9,40.8,33.1c18,5.5,31.7,12,28.2,32.9c-10.9,2.2-26.8,6.8-30,17.7
						c18,20,86.3-24.2,72.1,33.4c-1.7,7.1-2,16.3-1.3,23.6c-99.5,18.1-266.8-2.9-374.4,12.1l-7.3,1c-31.6,4.4-32.2,6.4-71.7,5.7
						c-21.4-0.4-59.9,5.7-69.2-29.6C5231,2434.9,5235,2370.3,5238.9,2369.1L5238.9,2369.1z"/>
					<path id="_225158976" class="st2" d="M5582.4,2253.2c14.9-1.6,29.7,16.4,11.2,21.3c-15.1,4-33.2,10.7-50.6,15.2l-22.9,5.9
						c-24.3,6.2-50.2,25.6-75.7,26.1c-19.5,0.4-13.6,6.4-32.7,13.8c-2.6,1-1.7,1.6-4,1.3c2.1-16.9,39.4-32.8,52.7-36.8
						c11.7-3.5,26.3-12.8,43.2-18.3c11.6-3.8,26.2-11.9,36.8-13.6C5550.5,2266.5,5572.5,2254.2,5582.4,2253.2z"/>
					<path id="_225157944" class="st2" d="M5629.5,2296.8c-4.7,4.5-35.1,13.3-51.9,24.8c-31.5,21.5-79.6,29.3-111.3,50.5
						c-3.3,2.2-9,1.5-13,2.6c36-3.3,43.1-9.8,70.9-21.9c16.5-7.2,63-16.9,75.4-28.7c0.3-0.3,14.8-6.3,22.6-12.4
						c3.2-2.5,4.4-0.2,7-4.4c3-1.2,7.3-4.5,0.2-5.6C5628.8,2299.4,5627.1,2299.1,5629.5,2296.8L5629.5,2296.8z"/>
					<path id="_225158328" class="st2" d="M5681.1,2385.2c-30.6,16.1-101.7,26.7-142.1,37.5c-4.3,1.2-8.9,0.1-13.1,0.6l4.7-0.4
						c42.3-3.4,44.6-3.8,86-9.8l1.6,0.2c7.4,0.7,36.3-13.3,52.2-14.3c2.3-0.1,16-2.6,14.9-6.4
						C5683.5,2386.2,5685.4,2387.4,5681.1,2385.2L5681.1,2385.2z"/>
				</g>
				<path id="_222636600" class="st3" d="M5037.2,1224.9l-5.4-0.6c-17.8-2.1-22.7,3.9-36.3,14.6l-1.5,1.8
					c-16.8,19.1-16.2,40.3-35.7,50.1c-2.5,1.3-12.7,8.4-14.4,8.6c-13.4,28.3-5.8,61.8-11,91.7l-0.4,2.4c-2.1,12.3-5.5,27.8,1,39
					c7.6,13.1,1-4-7.9,30.4c-3.8,14.8,38.2,46.5,49.2,57.4c8.6,8.6-7.3,2.2-6.5,23.1c0.7,18.4-11.5,22.4,28.3,38
					c0.5,0.2,19.3,5.6,21.3,5.2c2.3,1.9-0.7-0.4,1.2,1c6.2-1.5,33.1,6.4,55.6-0.6c25.6-8,21.7-4.7,38.3-25.8
					c8.2-10.5,1.6-8.4,21-12.7c22.1-4.9,32.3-26.4,34.6-47c2.6-23.6,2.3-37.2,3.6-60.9l0.2-3.1c1.7-31.4,3.8-58.8-19.3-83.6
					c-12.9-13.8-36-27.9-39.6-49.1c-3.6-21.3-32.6-50.8-50.6-62.4C5060.5,1241,5037.7,1224.9,5037.2,1224.9L5037.2,1224.9z"/>
				<path id="_221245040" class="st4" d="M5204,2391.7c-31.1-75.2-20.1-204.6-26.7-290.1c-4.2-54-5.6-65-15.6-117.8
					c-10.2-53.4,1.6-54.4-25.4-109.6c-3.8-7.7-9.7-31.3-16.6-35.4c0-0.4-90.6-151.4-98.1-162.8c0.2-1.3-6.5-33.6-7.5-40.7
					c-11-75.9-12-121.3-8.3-199.7c1.1-24.4-44.8-37.5-53.3-135.7c-3.5-40.3,23.1-99.8,88.2-36.3c14.1,21.6,28.6,69.2,44.5,101.9
					c18.5,38.1,35.2,115.4,67,143.7c4.4-18.9-35.9-39.5-15.1-52.6c3.3-10.8-24.6-19.7-23.7-38.8c2.1-1.6,52.2-17.9,53.8-17.9
					c-0.9-1.8-55.9-12.3-59.8-12c-11-13.3,6.7-44.6-15.6-47.7c-23.8-3.3-15-41.8-32.3-72.9c-10.5-18.8-76.7-49.5-10.1-47
					c3.3,0.1,43.2,27.7,53.3,31.1c9.2,3.1,56,31.4,58.3,35.8c9.1,17.6,49,16,52.5,24.6c69.8,18.2,47.7,106.4,39.7,156.8
					c-10.9,69.1-10.3,67.5-10.3,140.4c0,75.2,0.6,59.1,21.6,131.5l0.3,4.3c1,12.8,143.6,311.9,156.3,335.9l10,18.8
					c39.6,74.7,22.5,68.1,91,127.5c5.9,5.1,32.4,39.3,35.4,40.2c13.8,53.8-24.8,41.9-81,64.3c-45.8,18.2-104.8,51.1-139.2,87.7
					c-23.1,24.5-77-14.8-110.2-14.8C5220.4,2404.6,5195.6,2403.4,5204,2391.7L5204,2391.7z"/>
				<path id="_222635256" class="st4" d="M4943.9,1295.9c-13.6,3.4-31.9,53.2-31.9,66.6c0,12.4-1.5,23,3.7,34.1
					c5.6,12.2,10.6,27.6,12.3,41.1l0.1,1c2.1,16.8,7,33.1,23.9,40.9c14.4,6.6,21.3,10.1,32.3-7.3c4.9-7.8,11.9-30.6,11.9-39.5v-1.4
					c0-13.3-16.4-23.2-21.1-37.9c-1-3.3-14.7-26.7-18.1-36.9c-4-12.1-5.1-11.6-8.3-25.8C4944.8,1313.3,4943.9,1315.7,4943.9,1295.9
					L4943.9,1295.9z"/>
				<path id="_222632184" class="st4" d="M4925.5,1462.1c-4,6-2.8,27,2.3,33.7c9.6,12.6,12.6,35.3,14.4,51c1,8.9,4.3,27.6,13.2,32.4
					c7.8,4.3,12.6-2.4,18.3-6c4.4-2.8,10.5-17.2,12.8-23.6l0.2-0.6c1.3-3.8,3.6-4.2,4.7-10c1.7-9,2.6-9.2,0.6-18.3l0-0.9
					c0-2-9.5-17.5-11.1-22.6l-0.3-0.5c-1.2-2.3-1.9-9.7-2.3-10.5c-10.4,2.4-19.5,3.4-30.1-0.3c-14.2-4.9-12-10.7-20-18.5
					C4927.4,1466.6,4925,1462.8,4925.5,1462.1L4925.5,1462.1z"/>
				<path id="_222631224" class="st5" d="M4962.3,1268.2c-5.7,16,6.9,36.3,9.1,42.8c2.4,7.3,6.5,12.3,13.3,16.1
					c8.7,4.9,22.5,0.4,31.5-2.9c4.1-1.5,9-3.7,12.3-6.5c7.8-6.6,8.9-17.7,7.1-27.4c-1-5.4-8.1-16.5-11.4-21.4
					c-0.6-0.8-11.1-17.2-11.3-17.4c-8.2-4.1-7.5-6.1-18.8-6.5C4982.5,1244.6,4966.6,1256.1,4962.3,1268.2L4962.3,1268.2z"/>
				<path id="_222556872" class="st6" d="M4677.4,1092.6c2.9,2.2-4.7,97.5,86.2,171.2c14.7,11.9,43.9,19.1,61.9,22.7
					c49,9.7,94.5-7.6,115.5-48.3c-0.4-0.1-38.2,9-48.2,5.9c-20.4-6.1-37,4.6-65.7-9.2c-17.7-8.5-24.8-11.5-41.8-20.7l-5.1-2.7
					c-3.4-1.8-13.5-6.1-17.3-6.7c-0.9-1.9-12.2-5.8-15.2-8.1l-2.3-1.8c-9.6-7.6-57.9-79.4-59.3-90.2l-0.8-1
					c-0.9-1.2-5.5-10-5.2-10.8C4678.7,1092.1,4677.5,1092.7,4677.4,1092.6z"/>
				<path id="_222636264" class="st7" d="M4992.4,1210.7l3.4,1.7c3.7,1.8,14.7,13.8,14.9,14.1c5.7,9.6,4.7,6,4.7,16.4
					c-2.3,0-8-3.4-15.5-4.4c-13.8-1.9-16.8-2.1-30.1,5.4c0,0.4-9.9,17.8-13.9,23.5c-3.4,4.7-23.3-8.8-30.8-19.7
					C4923.8,1245.8,4992.8,1212.3,4992.4,1210.7L4992.4,1210.7z"/>
				<circle id="_222631992" class="st7" cx="4866.3" cy="1068" r="190.5"/>
				<path id="_222634248" class="st8" d="M4929.9,1421.1c-0.2,0.6,4.1,10.6,4.7,15.7c0.5,4.3,1.1,11.7,2.5,15.4
					c1.8,4.7,1.5,3.6,3.5,8c1.3,3,6.1,10,9.9,7.9c3.8-2.1-9.1-25.4-10.3-31.1c-0.4-2.2-4.6-9.1-6-14.3c-0.9-3.3-1.6-6.7-4.4-6.7
					C4929.8,1417.7,4930.2,1419.9,4929.9,1421.1L4929.9,1421.1z"/>
				<path id="_222542136" class="st8" d="M4945.6,1538.3l0.6,1.1c1.4,2.6-0.4,8.7,2.6,16l0.3,0.7c3.1,7.4,3.2,11.1,7.9,17.7
					c1.2,1.7,1.3,1.1,4,1.1c0-4.8-5.9-20.4-7.5-25.2c-0.8-2.6-6.5-21.2-8-22.1C4945.1,1528.3,4945,1537.2,4945.6,1538.3
					L4945.6,1538.3z"/>
				<circle id="_221251304" class="st9" cx="4866.3" cy="1068" r="160.7"/>
				<circle id="_222634464" class="st10" cx="4827.5" cy="1148.4" r="2"/>
				<circle id="_222635760" class="st10" cx="4795.1" cy="1107.6" r="6"/>
				<circle id="_221242904" class="st10" cx="4789.4" cy="1042.5" r="4.7"/>
				<circle id="_222643872" class="st10" cx="4807.8" cy="992.7" r="4.7"/>
				<circle id="_222628656" class="st10" cx="4867.4" cy="1019.4" r="7"/>
				<circle id="_221245472" class="st10" cx="4984.5" cy="1042.3" r="4.5"/>
				<circle id="_221246864" class="st10" cx="4987" cy="1104.6" r="4.5"/>
				<circle id="_221250800" class="st10" cx="4956.6" cy="1148.9" r="4"/>
				<circle id="_221250368" class="st10" cx="4920.5" cy="1169.1" r="3.7"/>
				<circle id="_222636552" class="st10" cx="4862.4" cy="1183.3" r="3.5"/>
				<circle id="_222636480" class="st10" cx="4797.1" cy="1174.3" r="4"/>
				<circle id="_222636648" class="st10" cx="4746.5" cy="1095.4" r="4.2"/>
				<circle id="_222641136" class="st10" cx="4743.6" cy="1054.5" r="2.2"/>
				<circle id="_222636192" class="st10" cx="4754" cy="1016.6" r="4.2"/>
				<circle id="_222630648" class="st10" cx="4787.2" cy="969" r="3"/>
				<circle id="_222637176" class="st10" cx="4807.1" cy="942.1" r="4"/>
				<circle id="_222639336" class="st10" cx="4844.7" cy="1079.9" r="3.7"/>
				<circle id="_222633072" class="st10" cx="4916" cy="1045.5" r="4.7"/>
				<circle id="_222631152" class="st10" cx="4934.7" cy="958.6" r="4"/>
				<circle id="_222630768" class="st10" cx="4936.6" cy="1114.5" r="1.5"/>
				<circle id="_221250512" class="st10" cx="4863.9" cy="1138" r="3.5"/>
				<circle id="_222641544" class="st10" cx="4898.5" cy="1088.9" r="3.2"/>
				<circle id="_222643992" class="st10" cx="4851.4" cy="952.1" r="5.5"/>
				<circle id="_222635328" class="st10" cx="4899.8" cy="982" r="5"/>
				<circle id="_222637824" class="st10" cx="4936.9" cy="1010.6" r="3.2"/>
				<path id="_222555816" class="st11" d="M5193.7,2347.5l8.9-2.8c1.1-0.3,65.5-44.7,78-51.6c96.5-53.2,128.5-85.2,246.9-85.2
					c3.9,0,31.6,16.6,13.3,28l-5.3,3.3c-11.9,7.4-63.5,24.4-64,24.9h3.3c58.9,0,48.4-10.7,72.2-13.5c17.4-2.1,12.5-9,37.9,7.9
					c13.9,9.2-17.6,16.1,14.3,27.2c36.7,12.7,3.9,21.9,40.8,33.1c18,5.5,31.7,12,28.2,32.9c-10.9,2.2-26.8,6.8-30,17.7
					c18,20,86.3-24.2,72.1,33.4c-1.7,7.1-2,16.3-1.3,23.6c-99.5,18.1-266.8-2.9-374.4,12.1l-7.3,1c-31.6,4.4-32.2,6.4-71.7,5.7
					c-21.4-0.4-59.9,5.7-69.2-29.6C5185.9,2413.3,5189.9,2348.7,5193.7,2347.5L5193.7,2347.5z"/>
				<path id="_222633768" class="st12" d="M5537.3,2231.5c14.9-1.6,29.7,16.4,11.2,21.3c-15.1,4-33.2,10.7-50.6,15.2l-22.9,5.9
					c-24.3,6.2-50.2,25.6-75.7,26.2c-19.5,0.4-13.6,6.4-32.7,13.8c-2.6,1-1.7,1.6-4,1.3c2.1-16.9,39.4-32.8,52.7-36.8
					c11.7-3.5,26.3-12.8,43.2-18.3c11.6-3.8,26.2-11.9,36.8-13.6C5505.4,2244.9,5527.4,2232.6,5537.3,2231.5z"/>
				<path id="_222641592" class="st12" d="M5584.3,2275.2c-4.7,4.5-35.1,13.3-51.9,24.8c-31.5,21.5-79.6,29.3-111.3,50.5
					c-3.3,2.2-9,1.5-13,2.6c36-3.3,43.1-9.8,70.9-21.9c16.5-7.2,63-16.9,75.4-28.7c0.3-0.3,14.8-6.3,22.6-12.4
					c3.2-2.5,4.4-0.2,7-4.4c3-1.2,7.3-4.5,0.2-5.6C5583.7,2277.8,5581.9,2277.5,5584.3,2275.2L5584.3,2275.2z"/>
				<path id="_222635928" class="st12" d="M5635.9,2363.6c-30.6,16.1-101.7,26.7-142.1,37.5c-4.3,1.2-8.9,0.1-13.1,0.6l4.7-0.4
					c42.3-3.4,44.6-3.8,86-9.8l1.6,0.2c7.4,0.7,36.3-13.3,52.2-14.3c2.3-0.1,16-2.6,14.9-6.4
					C5638.3,2364.6,5640.3,2365.8,5635.9,2363.6L5635.9,2363.6z"/>
			</g>
		</g>
	</g>
	<polygon class="st13" points="1500,0 5752,0 5752,2391.7 1500,2391.7 	"/>
	<g id="_222710928">
		<path id="_222711816" class="st2" d="M2082.4,775.8c-8.2-0.6-13.2,1.9-18.4,5.4l-7.4,6.4c0.8,0.6,2.1,0.4,2.6,1.8
			c2.7,7.4,65.3,22.8,70.4,24.1c11.9,96.6,16,65.8-4.8,145l16.7-29.6c3.8-8,10.1-25.6,15.1-33.8c-2.6-4.3-4.1-4-1.8-18.3
			c2.9-18.4,34.1-100.8,42.5-102.7l8,0.1c-6-23.6-6.6-55.2-7.2-79l11.1,31.3c0.3-0.8,0.5-2.9,0.5-2.5c0,0.5,0.4-1.9,0.4-2.4
			c0.7-13.8-2.4-8.1,0.1-14.4l3.4-4.7c14.5-15.6,20.2-7.7,36.7-8.5c12.7-0.6,24.1,3.1,38.4,6.2l-42.9-15.7l-5.1-30l26.9,15.1
			l39.2,11.4c-21.1,30.1,3.3,26.3-10.7,59.3c-5.8-13.9,0-3-9.4-10.9c-11-9.2-20-11.7-32.7-17.1l24.8,26.6c0,0-4.3,8.3-23.4,2.5
			l-18.3-6.5l-9.2,21.1c65.3,1.7,54-4.1,72.4,16.4c4.3,4.8,5.7,5.7,10.3,10.4c7,7.3,7,1.4,4.9,7l18.3,12.4l47.9,45.4l-25.2-37.4
			c18.5,4.1,37.4,12.2,57.1,18.9c-12.2-8.8-20.2-10.8-31.5-25.4c-8.9-11.4-14.6-23.9-23.5-36.1c-29.2-40.1-19-21.1,9.8-70.7
			l165.8,52.5l-75.9-38.9c-23.9-14.6-48.3-29-79-39.9c-9.8-3.3-28.9-9.5-42.6-13.7c-17.8-5.6-19.8-1.8-39.1-3.9l45.6,18.1
			c-6.8,4.2-20.5,12.8-28.4,10c-8.9-3.2-8.6-7.9-16.3-13.3c-17.2-11.8-20.2-5.4-35.8-23.4l17-11.9c12.4-10.1,14.7-14.3,14.1-30.4
			c-12.1,12-25.2,20.1-30.2,36.9l-12.9-7.9l27.2-31.1c4.8-9.2,3.9-10.4,4-11.5c-41.6-8.8-28.8-4.9-32.9-14.1l-31.2,6.9
			c18.4,10.1,34.8,6.1,55,13.3l-10.4,14.7c-10.8-4.5-22.6-15-16.9-8.9l-5.4,5.1c-0.4,0.3-1.2,1-1.5,1.3c-0.3,0.2-1.1,0.8-1.4,1
			c-12.5,7.4-22-20.3-33.1-3.2l-7.6,11.8c-0.2,0.2-1.1,1.1-1.3,1.3c-0.4,0.4-2.1,1.9-3,2.6l22.9,23.2l-20.3,7.7
			c-9.3,3.2-11,3.7-21.8,5.7c-0.9-14.3-0.4-83.4-11.4-92.6l-0.1,87.5c-11.1-11.5-20.3-24.9-28.5-37.1l-2.8,22.3
			c1.5,8,16.3,15.2-5.2,24.7c-9.4,4.1-6.7,4.6-19.8,6.1c8.3,32.4,7.2,69.7,36.8,91.5c7.6,5.6-7.5,3.7,11.8,4.3l-17-77.7l13.1-3.2
			c12.2,10.6,23,23.2,38.6,13.7l5.6,58l-4.9,3.7c-0.8,1.2,0-0.8-1.6,5l-2.3,8.6c-0.1,0.3-0.4,2.3-0.4,1.9c-0.1-0.4-0.2,1.3-0.4,1.9
			l-7.1-0.3c-0.5,0-0.9,1.1-5.2-0.9l5.8-19.9l-8.3-5.6l-20,58.8l-5.8,0.4c-11.4,6-44-6.2-55.3-9.5c-0.4-0.1-1.6-0.5-2-0.6l10-10.5
			c12.6-7.3,26.5-17.1,40.8-20.5l-5.5-4.3c-17.2-12.5,4.9,0.1-3.3-2.2l-8.9,1.4c-11.2,3.4-18.4,8.9-29.6,6L2082.4,775.8
			L2082.4,775.8z"/>
		<g>
			<path id="_222711768" class="st2" d="M2026.1,466.9c-20.6,0.7-33.3-0.9-44.6,10.8l20,15.5c-7.7,7.4-6.5,2.4-11.8,5.8
				c-10.2,6.7,0.6-13-4,5.2l28.6,4.3l-13.8,4.7c9.9,3.4,16.8,4.7,24.3,10.2c6.5,4.7,1.2-0.3,7,6.3l-57.3-9c-6.5,9.2-3.5,0-1.3,5.8
				l0.6-0.6l-29.6-4.7c3.3,6.6,3.4,11.6,1.6,17.9c-0.2,0.6-0.8,2.3-1.1,2.9l-3.1,11.3l24.4-1l6.6,6.5l15.6-7.2c6,9.7,2.1,4.2-9,41
				l61.1,2.5c-23.4,3.6-31.2-11.5-61.8,33c4.8,3-3.2,3.2,7.6,2c6.1-0.7,38.4-22.1,43.9-25.5c-0.4-0.3-2.9-12.3,0.5,1.5l-0.5,15.3
				l24.8-2.1c-43.7,16.7-34.4,20-41.2,27.6l-8.3,16.9c6.2,1.8,3.2,1.5,13.3-0.9c-6.7,2.5-13,8.8-18.4,15.6
				c-18.1,22.5-21.3,8.6-24.1,19.8c-1.4,5.3,3.7,2,1.6,10.4c-2,7.9-8.6,9.3-20.9,22.5c5.8,1.1,3.3-0.1,7.8,2.3l3.4,2.3
				c0.5,0.3,1.3,1.1,1.7,1.4l3.5,3.2l9.2-3.8c3.8-8.6-2.1-0.8,10.7-9.6l19.2-16.5c-7,3.8-18.7,31.9-23.2,40.7
				c9.5,3.1-6.9-5.8,15.3,1.4c8.2,2.7,10.6-4.2,14.7-10.2l-8.2,18.9l-19.1,26.5c5.3,3.8,0.4,6.3,22.9,0.1
				c-10.3,5.2-22.7,7-27.3,12.6c-9,11.1-4.4,17.8-3.9,20.4c0.1-0.1-10,0.7,26.9-14.9l-2.4,21.8c0.9-6.5,8.3-43.8,11.4-56.7
				c2.6-11.1,5.9-19.7,7.3-30c2.7-19.4-2.2-11.6,12.4-28.5c-1.9-0.6-8.7,4.1-14.9-3.8c-3.9-5,4.3-12.7,11.3-24.7
				c19.5-33.2,0.7-11.2,26.8-42.4c-21.6,6-19.7,14-25.8,46.3c-3.8-3.7-13-2.2-2.7-25.3c17.6-39.3,4.2-20.3,46.5-43.6l20.6,11.6
				c-5.2,8.2-12.3,14.8-17.2,21.3c-15.9,21.5-36.2,37.2-21.4,49.5c6.3,5.2,8.2,1,12.9-0.5c0.7-0.2,1.7-0.6,2.3-0.8l6.3-1.7
				l10.9,55.8l-8.9-9.8c-7.9-10-6.4-13.5-10-32l-12.8,28.4l-8.4-7.2c-0.8-0.6-1.6-1.4-2.3-2.1l-4.4-3.6
				c-0.2,11.6-8.4,42.7-11.5,57.6l7.6,0.3c10.5,1.2,25.3-7.9,38.1-10.1l7.4-8.1c11.2,2.9,18.4-2.5,29.6-6l8.9-1.4
				c8.2,2.3-13.9-10.3,3.3,2.2l5.5,4.3c-14.3,3.4-28.2,13.1-40.8,20.5l-10,10.5c0.3,0.1,1.5,0.5,2,0.6c11.3,3.3,43.9,15.5,55.3,9.5
				l5.8-0.4l20-58.8l8.3,5.6l-5.8,19.9c4.3,1.9,4.7,0.8,5.2,0.9l7.1,0.3c0.2-0.6,0.4-2.3,0.4-1.9c0.1,0.4,0.4-1.6,0.4-1.9l2.3-8.6
				c1.5-5.8,0.7-3.9,1.6-5l4.9-3.7l-5.6-58c-15.6,9.5-26.4-3-38.6-13.7l-13.1,3.2l17,77.7c-19.3-0.6-4.1,1.4-11.8-4.3
				c-29.5-21.8-28.5-59.1-36.8-91.5c13.1-1.6,10.5-2,19.8-6.1c21.5-9.5,6.7-16.8,5.2-24.7l2.8-22.3c8.2,12.2,17.4,25.7,28.5,37.1
				l0.1-87.5c11,9.2,10.5,78.2,11.4,92.6c10.8-2.1,12.5-2.6,21.8-5.7l20.3-7.7l-22.9-23.2c0.9-0.6,2.7-2.2,3-2.6
				c0.2-0.2,1.1-1,1.3-1.3l7.6-11.8c11.1-17.2,20.6,10.6,33.1,3.2c0.3-0.2,1.1-0.8,1.4-1c0.4-0.3,1.2-1,1.5-1.3l5.4-5.1
				c-5.7-6.1,6.1,4.4,16.9,8.9l10.4-14.7c-20.3-7.2-36.7-3.2-55-13.3l31.2-6.9c4.1,9.2-8.7,5.2,32.9,14.1c0,1.1,0.8,2.3-4,11.5
				l-27.2,31.1l12.9,7.9c5-16.8,18.2-25,30.2-36.9c0.7,16.1-1.6,20.3-14.1,30.4l-17,11.9c15.6,18,18.6,11.5,35.8,23.4
				c7.7,5.3,7.4,10.1,16.3,13.3c7.8,2.8,21.6-5.8,28.4-10l-45.6-18.1c19.4,2.1,21.3-1.6,39.1,3.9c13.7,4.3,32.8,10.4,42.6,13.7
				l2.1-10.1c-4.9-9.6-6.5-8-16.9-12.7c9.6-10.8,18.5-15.5,10.6-29.9c-13.2,0.4-28.6,3.1-39.5-5c6.5-2.3,18.6-5.8,22.9-11.6
				c-7.1,4.1-19.4,5.5-29.3,5.9c6.3-9.4,12.5-18.7,22.8-21.4c52.1-14,28.1,3.5,60-27.7c-17.5-0.4-3.6-0.1-17.1-3.7l0.4-4.3
				c0-0.3,0.2-1.4,0.3-1.7l-4-7c10.3-10.1,31.9-28.6,36.6-41.5l-21.9,10.3l-4.8-2.9c-4,2.8-8.8,6.1-13.7,4.8
				c-3.4-1-8.3,9.7-7.7-10.3c0.7-25.2,10.6,1,10.2-16.1l-11.8,4.2c-28.9-41.9-14.3-26.8-18.9-70l-2.3-5c-0.6,0.4-1.5,1-2.2,1.4
				c-0.6,0.4-1.5,0.9-2.1,1.3c-8.3,5-13.4,7.5-22.2,9.3c0.4,8.6,1.5,14.2-2.3,21l-6.6-16.1c-20.8,12-30.4,17.5-42.9,30.4
				c-3.3,3.4-1.3,1.5-4.4,5.3c-27.5,33.5-15.9,11.7-32.3,26.7l-0.8-3.1c-3.5-11.4-6.3-4.2-0.3-11.1c8.5-10,10.3-2.4,14.6-19.1
				l-19.1,6.9c-3.2,0.1,2.7-8.3-1,0.4l-15.4,14.2c-10.2,11.3-12.3,22.4-13.9,37.8c-7.4-12.1-7.2-11.7-8-24.7l-23.7-2.4l9.5-39.7
				c2.9-16.5-15-16.4-22.7-12.9c-2.1,19.4-4.8,20.6,5.7,35.1c-32-15.4-18.3-30-50-37.8l18-9.8l-4.6-5.6
				c-9.4-9.2-41.7-20.5-49.8-20.4c2,7.3,2,10.9,5.5,13.8l5,2.5c0.4-0.7,1.9,0.7,2.7,1.1l-16.2-4l-11.4,29.7
				c5.6-1.5,35.4-10.1,39.6-9.1c11,2.8,4.4-4.9,5.5,6.3c-37.1,25.1-15.3,14.7-14.8,15.9c-2.1-11.4-11.9-4.5-23.9-4.9l15.6,23.9
				c11.4,19-11.6,21,1,14.3c4.4,19.5,1.6,14.8,0,19.2c-20-11.6-14.5-6.1-24-22.1l-5.1-10l-7.5-19.8L2026.1,466.9L2026.1,466.9z"/>
			<path id="_222711672" class="st2" d="M2469.4,246.7c-7,14.4-23.6,25.5-35.9,34.4c-16.6,12-24.4,25.6-50,42.6c-7.5,5-7,3-12,10.7
				l2.6-21.2l-27.7,39.8c-11,6.8-24.7,19.5-30.6,30.6l0.6-22.7c-6.3,12.1-7.9,12-5.7,19.3l10.2-64.1l-26.8,64.3
				c3.9,6,6.5-9.8,3.2,13.4l5.8-17.3c-11.1,61.2-2.8,49.3-33.4,63.4c-26.4,12.2-7,14.7-34,11.8l-3.5-12.4c-0.4-0.6-1-1.4-1.5-2
				c-0.4-0.6-1.2-1.3-1.7-1.8c-20.6-25.2-6.3-25.6-23.2-41.8c-5.9,16.4,1.1,6.5-3,21.7c-2.5,9.4-5,16.7-13.6,23.1
				c-15.7-9.2-13.4-5.3-17.8-20c-2.7-9.1-5-17.4-7.1-26.5l4.8-1.7c5.3-0.7,3.1,1,3.5,2.2l9.9-17.1l0.5,22.4
				c32.1-78.4,14.9-35.3,40.1-77.2c-1.7,24-3.2,20.5,5.9,44.8c14.6-27.1,9.9-13.5,9.9-36.6c-1.6,6.6,4.3,23.5,6.7,29.9
				c7.9-25,8.1-44.6,5.9-73.1c-10-5.3-10.2-1.7-15.4,5.3l-0.4-18.6c-25.1,57.4-15.6,27.7-39.8,65.9c-17.3-7.2-11.9-9.3-21.4-22.3
				c-5.3-18.2-22-27-25.7-50.3c-6.5,1.9-12.7-10.4-23.1-22.8c-0.8,11.6,0.5,10.9-2.8,15.6l-6.2-27.5l-6.9,16.3
				c-7.6-12.1-10.8-20-21.2-27.4c-10.2-7.2-0.8-1.4-10.7-6.2c25.1,35,28,31.2,34.2,58.5c0.7,2.9,3.1,10.9,4,12.7
				c3.7,7.9,1.1,3.9,5,7.4l-8.5,3.3l4.1,10.4l18.9,62.4c3.4,8.7,3.8,11.7,7.2,23.3c-53.9-2.1-16.5-5.9-63-14.5l-5.8-15l-4.3,13.9
				c-2.6,3.4,10,6.6-6.5,1.5l3.6-3.9c3.3-10.8-3.2-13.4-11.3-26.1c-7.5-11.6-10.1-23.2-16.4-35.2c-3.7,21.5,2,44.4,2.6,70.1
				c-5.8-2.2-15.4-5.1-19.7-8.9c-7.1-6.4-11.3-28.3-17.7-42c-5-10.8-5.1-12.1-10.7-17.8c-2.3,22.6-7.7,48.4-3.4,68l6.5,1.8
				c1.2,0.2,2,0.5,3.3,0.7l-3.7,0.8c-5.2,11.2-4.8,12.1-0.1,27l-8.6-21.3c-0.1-1.4-0.3-1.8-0.7-2.6c-0.9,7.5-2.6,24.1-6.6,30.6
				l-23.1-50.3c-6.8-5.9-5.6-2.6-26.2-2.9l23.9,53.8c-53-23.5-72.7-19-123.4-2.1l55.4-5.7l4.9,33.4l-58.8-6.9
				c19.6-8.2,82.4,31.6,86.7,50.8c5.8,6.2,1.6,5.6,23.9,6.4c-2.6,12.4-11.8,5.2-16.6,23.2c19,5.1,11.2,1.1,23.1-0.2
				c20.6-2.3,8.1-0.4,24.1,2.7l57.3,9c-5.8-6.5-0.5-1.5-7-6.3c-7.5-5.5-14.3-6.8-24.3-10.2l13.8-4.7l-28.6-4.3
				c4.6-18.3-6.1,1.5,4-5.2c5.3-3.5,4.1,1.6,11.8-5.8l-20-15.5c11.3-11.7,24-10.1,44.6-10.8l27-7.9l7.5,19.8l5.1,10
				c9.5,16,4,10.5,24,22.1c1.6-4.4,4.4,0.3,0-19.2c-12.6,6.7,10.4,4.7-1-14.3l-15.6-23.9c12,0.4,21.8-6.5,23.9,4.9
				c-0.5-1.2-22.2,9.2,14.8-15.9c-1.1-11.2,5.5-3.5-5.5-6.3c-4.2-1.1-34,7.6-39.6,9.1l11.4-29.7l16.2,4c-0.9-0.5-2.3-1.9-2.7-1.1
				l-5-2.5c-3.4-2.8-3.4-6.5-5.5-13.8c8.1-0.1,40.4,11.2,49.8,20.4l4.6,5.6l-18,9.8c31.7,7.8,18,22.5,50,37.8
				c-10.5-14.5-7.8-15.6-5.7-35.1c7.8-3.5,25.6-3.6,22.7,12.9l-9.5,39.7l23.7,2.4c0.8,13,0.6,12.5,8,24.7
				c1.5-15.3,3.6-26.5,13.9-37.8l15.4-14.2c3.6-8.7-2.2-0.2,1-0.4l19.1-6.9c-4.3,16.6-6.1,9.1-14.6,19.1c-5.9,6.9-3.2-0.3,0.3,11.1
				l0.8,3.1c16.4-15,4.8,6.7,32.3-26.7c3.1-3.8,1.1-1.9,4.4-5.3c12.6-13,22.1-18.5,42.9-30.4l6.6,16.1c3.8-6.8,2.7-12.4,2.3-21
				c8.9-1.8,14-4.3,22.2-9.3c0.6-0.4,1.5-0.9,2.1-1.3c0.6-0.4,1.6-1,2.2-1.4l2.3,5c9.6-6.3,4.4-4,5.4-18.6
				c1-16.7,3.1-15.9,16.2-30.2c2.2-2.4,3.6-4,4.7-5.2c18-19.3,11.8-18,22.1-30.9c10.8-13.6,25.4-22.3,37.1-35.8
				c6.6-7.6,9.4-12.2,16.5-20l14.4-14.6c0.3-0.2,1.5-0.3,1.8-1.1c0.2-0.8,1.1-0.8,1.8-1c17.6-31.3,37.5-60.6,47.3-102.2
				C2502.9,208.6,2506.4,211.5,2469.4,246.7L2469.4,246.7z"/>
			<path id="_222711384" class="st14" d="M1973.2,740.3l-3.5-3.2c-0.4-0.3-1.3-1.1-1.7-1.4l-3.4-2.3c-4.5-2.4-1.9-1.2-7.8-2.3
				c12.3-13.2,18.9-14.6,20.9-22.5c2.1-8.4-3-5-1.6-10.4c2.9-11.2,6,2.7,24.1-19.8c5.5-6.8,11.7-13.1,18.4-15.6
				c-10.1,2.4-7.1,2.7-13.3,0.9l8.3-16.9c6.9-7.6-2.5-10.9,41.2-27.6l-24.8,2.1l0.5-15.3c-3.4-13.8-1-1.9-0.5-1.5
				c-5.5,3.3-37.8,24.8-43.9,25.5c-10.8,1.3-2.8,1-7.6-2c30.6-44.4,38.5-29.3,61.8-33l-61.1-2.5c11.1-36.8,15-31.4,9-41l-15.6,7.2
				l-6.6-6.5l-24.4,1l3.1-11.3c0.2-0.6,0.9-2.3,1.1-2.9c1.8-6.2,1.7-11.2-1.6-17.9l29.6,4.7l-0.6,0.6c-2.2-5.8-5.2,3.4,1.3-5.8
				c-16-3.1-3.5-5-24.1-2.7c-11.9,1.3-4.1,5.3-23.1,0.2c4.8-18.1,13.9-10.8,16.6-23.2c-22.3-0.9-18.1-0.2-23.9-6.4
				c-26.1-8.8-152.1-24.9-189.2-30.5l176.2,53c-97.4-7.8-80.9-6-173.6,25.3c36.7-8.5,48.5-21,95.2-12.6c30.1,5.4,29.4-1.8,71.3,31.3
				l9.5,9.7c-17.3,11.2-22.8,9.4-45.3,7c-16.1-1.8-30.2-1.8-46.4-2.7l-81.8-15.6l99.2,41.2l-60.9,36.4l117.7-16.4
				c-0.8,0.5-2.2,0.1-2.6,1.2c-1.5,3.4-20.9,0.8-23.4,0.5l16.1,7.2l-3.7,18l31.8-2.1l-12.1-10.8l43.1,16.9
				c2.7,14.5,4.8,14.5-0.3,28.4c-10.8,29.4-51.2,26.3-92,47.9l-4.3,2.4c-22.7,13.3-34.2,17.2-58.9,28.2c33.7-9.7,48.4-12,83.1-18.4
				l-29,25.6c-44.7,33.5-47.3,38.1-89.1,77.1l50.7-33c2.1,13.5,3.9-17.9-3.3,9.6c51.8-15.4,72.9-22.1,118.5-46.6
				c-12.8,19-1,11.3-0.9,15.1l-7.7,19.8c8.5-4.5,11.5-6.6,18.1-15.8c5.3-7.4,5.9-11.1,12.4-17.4
				C1947.1,760,1964.5,753.1,1973.2,740.3L1973.2,740.3z"/>
			<path id="_222711408" class="st14" d="M2390.4,485.8c0.4,17.1-9.6-9.1-10.2,16.1c-0.5,20,4.3,9.3,7.7,10.3
				c4.9,1.4,9.7-1.9,13.7-4.8l4.8,2.9l21.9-10.3c-4.8,12.9-26.3,31.4-36.6,41.5l4,7c0,0.3-0.2,1.4-0.3,1.7l-0.4,4.3
				c13.5,3.6-0.4,3.3,17.1,3.7c-32,31.2-7.9,13.7-60,27.7c-10.3,2.8-16.5,12-22.8,21.4c9.9-0.4,22.2-1.8,29.3-5.9
				c-4.3,5.8-16.4,9.2-22.9,11.6c10.8,8.2,26.3,5.4,39.5,5c7.9,14.4-1,19.1-10.6,29.9c10.4,4.7,12,3.1,16.9,12.7
				c23.3-16.1,181.7,61.6,218.5,62.5l-10.3-4.7c-39.8-18.2-147-76.2-172.9-85.9c-18.1-6.7-11.5-1.1-22.5-14.4l93.2,8.6l-91.2-24.2
				c1.4-13.5-6.8-5.3,23.7-19.5c35.3-16.5,60.4-33.5,92.5-41c23.1-5.4-2.6-6.5,69.7-19.6c27.1-4.9,47.8-9.3,75.9-12.2l63-4
				c-6-5.4,3.9-1.9-10.7-5.3c-2.4-0.6-10.3-0.6-13-0.5c-26.4,1-51.9,4.6-79.8,3c-23-1.3-84.7-1.9-101.8-5.5
				c-8.9,5.2-4.6,3.7-20.8,4.9c-15,1.1-48.7,2.2-61.5,0c19.2-39,14.8-45.7,32.8-57.1l-8-0.7l5.2-36.6c2.2-21-4.1-24.1-2-30.2
				l-17.8,72.2c-7.7,15.8,2.3,3.7-10.9,12.5c-4.4,2.9-8.2,5-12.7,7.6C2409,476.9,2400.4,480.6,2390.4,485.8L2390.4,485.8z"/>
			<path id="_222711480" class="st2" d="M2174.6,316.1c9.5,12.9,4.1,15.1,21.4,22.3c24.2-38.2,14.7-8.5,39.8-65.9l0.4,18.6
				c5.2-7,5.4-10.6,15.4-5.3c2.2,28.5,2,48.1-5.9,73.1c-2.4-6.4-8.3-23.3-6.7-29.9c0,23.1,4.6,9.4-9.9,36.6
				c-9.1-24.3-7.7-20.7-5.9-44.8c-25.2,41.9-8-1.2-40.1,77.2l-0.5-22.4l-9.9,17.1c-0.4-1.3,1.8-2.9-3.5-2.2l-4.8,1.7
				c2,9.1,4.4,17.4,7.1,26.5c4.4,14.8,2.1,10.8,17.8,20c8.6-6.3,11-13.7,13.6-23.1c4.1-15.2-2.9-5.3,3-21.7
				c16.9,16.2,2.6,16.7,23.2,41.8c0.5,0.6,1.2,1.2,1.7,1.8c0.4,0.6,1.1,1.3,1.5,2l3.5,12.4c27,2.9,7.7,0.4,34-11.8
				c30.7-14.2,22.3-2.3,33.4-63.4l-5.8,17.3c3.3-23.2,0.7-7.4-3.2-13.4l-2.1,8.8l-13.3-7.6c-2.8-39.7-3.9-76.7-8.9-116.1
				c-4.8-37.3,5-38.5,31.4-92.8l-35,50.7c1.8-34.8-7.3-55.6-9.5-86.6l-3.6,47.8c2.1,69.5-12.5,77.2-47.3,128.7
				c-6.3-18.2-17.5-32.1-26.2-51.7l-10-18.7c-10-11.4-11.6-13.1-15.8-26c-8.1-5.1-47-72.6-48.3-79.1
				C2128.9,183.6,2157,260.6,2174.6,316.1L2174.6,316.1z"/>
			<path id="_222711648" class="st2" d="M1931,365.5c20.6,0.2,19.3-3.1,26.2,2.9l23.1,50.3c4-6.5,5.7-23.1,6.6-30.6
				c0.4,0.8,0.5,1.2,0.7,2.6l8.6,21.3c-4.7-15-5.1-15.8,0.1-27l3.7-0.8c-1.3-0.2-2.1-0.5-3.3-0.7l-6.5-1.8
				c-4.3-19.6,1.1-45.3,3.4-68c5.6,5.6,5.7,7,10.7,17.8c6.4,13.7,10.5,35.6,17.7,42c4.2,3.8,13.8,6.7,19.7,8.9
				c-0.6-25.7-6.3-48.6-2.6-70.1c-6.2-21.2-11.7-36.9-24.5-53.1c7.3-6.6-3.5,0.4,5.7-3.6c3.7-1.6,3.2-0.6,7-1.7
				c-2-18-15.9-26.9-26.6-44.6l-2.4-4.2c-11.2-18.9-42.7-50.7-45.6-61l-5.4-1.4l46.3,86.4c0.2-0.6,11-0.1-14.1-16.1
				c-18.2-11.6-18.1-10.2-30.5-26.4c-9.8-12.9,7.2,6.5-15.9-2.7l-16-6.3c9.4,14.7,24.1,17,31.5,29.9c6.4,11.2,31.3,129.1,35.3,147
				c-2.9,0.8-41.6-11.8-48.3-17.4l-32-40.9l11.5,36.1c-1.1-2.1,4.3,0.3-7.5-4.3l-43.2-13.1c-21.2-6.8-39.2-15.7-55.1-12.1
				c21.9,6.9,41.8,20.3,63.2,31.5L1931,365.5L1931,365.5z"/>
			<path id="_222711288" class="st2" d="M2156.6,895.2L2186,814c9.5,4.1,11,14.3,18.6,24.9l19.1,25.5l-17.7-54.1
				c15.4-2.9,28.7-6.9,43.3-12.6c7-2.7,12.1-4.6,18.7-7.8c26.5-12.9,5.4-15.9,47.6,0.1c2-5.6,2,0.3-4.9-7c-4.6-4.7-6-5.7-10.3-10.4
				c-18.4-20.5-7.1-14.7-72.4-16.4l9.2-21.1l18.3,6.5c19.1,5.8,23.4-2.5,23.4-2.5l-24.8-26.6c12.7,5.5,21.7,7.9,32.7,17.1
				c9.4,7.9,3.6-3.1,9.4,10.9c13.9-33-10.4-29.2,10.7-59.3l-39.2-11.4l-26.9-15.1l5.1,30l42.9,15.7c-14.4-3.1-25.8-6.8-38.4-6.2
				c-16.5,0.8-22.2-7.2-36.7,8.5l-3.4,4.7c-2.4,6.3,0.6,0.6-0.1,14.4c0,0.5-0.4,2.9-0.4,2.4c0-0.5-0.2,1.7-0.5,2.5l-11.1-31.3
				c0.6,23.8,1.2,55.4,7.2,79l-8-0.1c-8.4,1.9-39.6,84.3-42.5,102.7C2152.5,891.1,2154,890.9,2156.6,895.2L2156.6,895.2z"/>
			<path id="_222711336" class="st2" d="M2008.1,827.6l-0.8,70.7c5.3-11.7,0.9-11.9,10.4-31.8l5.8,31.3
				c5.2-97.1,17.2-85.9,20.8-111.9l-7.6-0.3c3.1-14.9,11.3-46,11.5-57.6l4.4,3.6c0.7,0.6,1.5,1.4,2.3,2.1l8.4,7.2l12.8-28.4
				c3.6,18.5,2.2,22,10,32l8.9,9.8l-10.9-55.8l-6.3,1.7c-0.6,0.2-1.7,0.6-2.3,0.8c-4.7,1.5-6.6,5.8-12.9,0.5
				c-14.8-12.2,5.5-28,21.4-49.5c4.9-6.6,12-13.1,17.2-21.3l-20.6-11.6c-42.3,23.3-29,4.3-46.5,43.6c-10.3,23.1-1.2,21.6,2.7,25.3
				c6.1-32.2,4.2-40.2,25.8-46.3c-26.2,31.2-7.3,9.2-26.8,42.4c-7.1,12-15.2,19.7-11.3,24.7c6.2,7.9,13,3.1,14.9,3.8
				c-14.6,16.8-9.7,9-12.4,28.5c-1.4,10.2-4.7,18.9-7.3,30C2016.4,783.8,2009,821,2008.1,827.6L2008.1,827.6z"/>
			<path id="_222710448" class="st2" d="M1982.4,736.5c-7.7,19.1-27.8,30.7-33.4,36.5c-13,13.4,2,4.9-24.4,25.5
				c-15.8,12.4-24.5,24.6-37.7,40.3c4.8-1.5,9.7-2.8,13-5.1l32.1-25c-11.9,3.3-10.5,10.4-20.5,20.1c-15.6,15.1-22.3,15.2-37.3,28.7
				l-37.6,27.3c8.7-0.6,25.2-9.9,34-13.9c14.2-6.5,19.2-13.3,35.7-20.8l60.2-22.2c3.9-0.9,1.9,1.4,5.4-5l11.6-2.2
				c-0.5-2.5-5.1-9.3,3.9-20.4c4.5-5.6,17-7.4,27.3-12.6c-22.5,6.3-17.7,3.7-22.9-0.1l19.1-26.5l8.2-18.9
				c-4.1,6.1-6.5,12.9-14.7,10.2c-22.2-7.3-5.8,1.7-15.3-1.4c4.5-8.8,16.2-36.9,23.2-40.7l-19.2,16.5
				C1980.3,735.8,1986.3,728,1982.4,736.5L1982.4,736.5z"/>
			<path id="_222710472" class="st2" d="M2039.1,312.3c6.3,12,9,23.6,16.4,35.2c8.2,12.7,14.6,15.3,11.3,26.1l-3.6,3.9
				c16.5,5.1,3.9,1.8,6.5-1.5l4.3-13.9l5.8,15c46.5,8.6,9.1,12.4,63,14.5c-3.3-11.6-3.7-14.6-7.2-23.3l-18.9-62.4l8.4,49.4
				l-28.8,7.8c-25.6-46.8-23-49-52.2-85c-5.5-6.8-13.8-16.7-16.9-24.3c-3.9,1.1-3.3,0-7,1.7c-9.2,4.1,1.7-2.9-5.7,3.6
				C2027.3,275.4,2032.9,291.1,2039.1,312.3L2039.1,312.3z"/>
			<path id="_222710352" class="st2" d="M2026.1,466.9l21.1-15.1l-13.9-29.8c18.8,3.4,21,12.6,30.3,26.5l12-38.6
				c-29.3-6.4-1-15.2-55.2-2.7c11.7,3.2-0.1-4.5,22.9,8.1l-41.8,10.3l4.7,28.3l1.7-1.6l11.6,6.7c1.6,2.5-2.5,6-4.1,7.6L2026.1,466.9
				L2026.1,466.9z"/>
		</g>
	</g>
	<rect x="2023.9" y="1365.3" class="st15" width="495.3" height="647.8"/>
	<path class="st2" d="M3006,988.8h1411.4c28.3,0,51.3,23,51.3,51.3v940.4c0,28.3-23,51.3-51.3,51.3H3006c-28.3,0-51.3-23-51.3-51.3
		v-940.4C2954.7,1011.8,2977.7,988.8,3006,988.8z"/>
	<path class="st2" d="M3022.2,1000h1411.4c28.3,0,51.3,23,51.3,51.3v940.4c0,28.3-23,51.3-51.3,51.3H3022.2
		c-28.3,0-51.3-23-51.3-51.3v-940.4C2970.9,1023,2993.9,1000,3022.2,1000z"/>
	<path class="st16" d="M2848.2,551.5h1703.1c13.7,0,28.7,11.7,24.9,24.9l-104.6,366.7c-3.8,13.2-11.2,24.9-24.9,24.9H2975.7
		c-13.7,0-20.4-12-24.9-24.9l-127.6-366.7C2818.8,563.5,2834.5,551.5,2848.2,551.5L2848.2,551.5z"/>
	<polygon class="st17" points="2903,586.4 4524.4,584.9 4424.7,951.2 3009.6,945.2 	"/>
	<path class="st18" d="M3004.1,981.1h1411.4c28.3,0,51.3,23,51.3,51.3v940.4c0,28.3-23,51.3-51.3,51.3H3004.1
		c-28.3,0-51.3-23-51.3-51.3v-940.4C2952.8,1004,2975.8,981.1,3004.1,981.1z"/>
	<rect x="2771.4" y="1494" class="st2" width="28.9" height="435.5"/>
	<rect x="2773.5" y="1456.9" class="st19" width="24.7" height="37.1"/>
	<rect x="2770.4" y="1443.3" class="st20" width="30.9" height="13.6"/>
	<rect x="2776.4" y="1408" class="st19" width="18.9" height="35.4"/>
	<rect x="2781.5" y="1929.5" class="st20" width="7.1" height="25.3"/>
	<polygon class="st19" points="2800.3,1500.6 2805.8,1500.6 2811.3,1500.6 2811.3,1511.8 2811.3,1632.1 2805.8,1632.1 
		2805.8,1511.8 2800.3,1511.8 	"/>
	<rect x="2011.4" y="1350.4" class="st21" width="495.3" height="647.8"/>
	<rect x="2039.6" y="1404" class="st17" width="19.7" height="26.2"/>
	<rect x="1947.8" y="1409.2" class="st22" width="101.7" height="4.9"/>
	<rect x="1947.8" y="1419.1" class="st22" width="101.7" height="4.9"/>
	<rect x="2039.6" y="1455" class="st17" width="19.7" height="26.2"/>
	<rect x="1947.8" y="1460.3" class="st22" width="101.7" height="4.9"/>
	<rect x="1947.8" y="1470.2" class="st22" width="101.7" height="4.9"/>
	<rect x="2039.6" y="1506.1" class="st17" width="19.7" height="26.2"/>
	<rect x="1947.8" y="1511.3" class="st22" width="101.7" height="4.9"/>
	<rect x="1947.8" y="1521.2" class="st22" width="101.7" height="4.9"/>
	<rect x="2039.6" y="1557.2" class="st17" width="19.7" height="26.2"/>
	<rect x="1947.8" y="1562.4" class="st22" width="101.7" height="4.9"/>
	<rect x="1947.8" y="1572.3" class="st22" width="101.7" height="4.9"/>
	<rect x="2039.6" y="1608.3" class="st17" width="19.7" height="26.2"/>
	<rect x="1947.8" y="1613.5" class="st22" width="101.7" height="4.9"/>
	<rect x="1947.8" y="1623.4" class="st22" width="101.7" height="4.9"/>
	<rect x="2039.6" y="1659.3" class="st17" width="19.7" height="26.2"/>
	<rect x="1947.8" y="1664.5" class="st22" width="101.7" height="4.9"/>
	<rect x="1947.8" y="1674.4" class="st22" width="101.7" height="4.9"/>
	<rect x="2039.6" y="1710.4" class="st17" width="19.7" height="26.2"/>
	<rect x="1947.8" y="1715.6" class="st22" width="101.7" height="4.9"/>
	<rect x="1947.8" y="1725.5" class="st22" width="101.7" height="4.9"/>
	<rect x="2039.6" y="1761.5" class="st17" width="19.7" height="26.2"/>
	<rect x="1947.8" y="1766.7" class="st22" width="101.7" height="4.9"/>
	<rect x="1947.8" y="1776.6" class="st22" width="101.7" height="4.9"/>
	<rect x="2039.6" y="1812.5" class="st17" width="19.7" height="26.2"/>
	<rect x="1947.8" y="1817.8" class="st22" width="101.7" height="4.9"/>
	<rect x="1947.8" y="1827.7" class="st22" width="101.7" height="4.9"/>
	<rect x="2039.6" y="1863.6" class="st17" width="19.7" height="26.2"/>
	<rect x="1947.8" y="1868.8" class="st22" width="101.7" height="4.9"/>
	<rect x="1947.8" y="1878.7" class="st22" width="101.7" height="4.9"/>
	<rect x="2039.6" y="1914.7" class="st17" width="19.7" height="26.2"/>
	<rect x="1947.8" y="1919.9" class="st22" width="101.7" height="4.9"/>
	<rect x="1947.8" y="1929.8" class="st22" width="101.7" height="4.9"/>
	<g id="_222630576">
		<path id="_420882424" class="st23" d="M2002.7,726.1c-8.2-0.6-13.2,1.9-18.4,5.4l-7.4,6.4c0.8,0.6,2.1,0.4,2.6,1.8
			c2.7,7.4,65.3,22.8,70.4,24.1c11.9,96.6,16,65.8-4.8,145l16.7-29.6c3.8-8,10.1-25.6,15.1-33.8c-2.6-4.3-4.1-4-1.8-18.3
			c2.9-18.4,34.1-100.8,42.5-102.7l8,0.1c-6-23.6-6.6-55.2-7.2-79l11.1,31.3c0.3-0.8,0.5-2.9,0.5-2.5c0,0.5,0.4-1.9,0.4-2.4
			c0.7-13.8-2.4-8.1,0.1-14.4l3.4-4.7c14.5-15.6,20.2-7.7,36.7-8.5c12.7-0.6,24.1,3.1,38.4,6.2l-42.9-15.7l-5.1-30l26.9,15.1
			l39.2,11.4c-21.1,30.1,3.3,26.3-10.7,59.3c-5.8-13.9,0-3-9.4-10.9c-11-9.2-20-11.7-32.7-17.1l24.8,26.6c0,0-4.3,8.3-23.4,2.5
			l-18.3-6.5l-9.2,21.1c65.3,1.7,54-4.1,72.4,16.4c4.3,4.8,5.7,5.7,10.3,10.4c7,7.3,7,1.4,4.9,7l18.3,12.4l47.9,45.4l-25.2-37.4
			c18.5,4.1,37.4,12.2,57.1,18.9c-12.2-8.8-20.2-10.8-31.5-25.4c-8.9-11.4-14.6-23.9-23.5-36.1c-29.2-40.1-19-21.1,9.8-70.7
			l165.8,52.5l-75.9-38.9c-23.9-14.6-48.3-29-79-39.9c-9.8-3.3-28.9-9.5-42.6-13.7c-17.8-5.6-19.8-1.8-39.1-3.9l45.6,18.1
			c-6.8,4.2-20.5,12.8-28.4,10c-8.9-3.2-8.6-7.9-16.3-13.3c-17.2-11.8-20.2-5.4-35.8-23.4l17-11.9c12.4-10.1,14.7-14.3,14.1-30.4
			c-12.1,12-25.2,20.1-30.2,36.9l-12.9-7.9l27.2-31.1c4.8-9.2,3.9-10.4,4-11.5c-41.6-8.8-28.8-4.9-32.9-14.1l-31.2,6.9
			c18.4,10.1,34.8,6.1,55,13.3l-10.4,14.7c-10.8-4.5-22.6-15-16.9-8.9l-5.4,5.1c-0.4,0.3-1.2,1-1.5,1.3c-0.3,0.2-1.1,0.8-1.4,1
			c-12.5,7.4-22-20.3-33.1-3.2l-7.6,11.8c-0.2,0.2-1.1,1.1-1.3,1.3c-0.4,0.4-2.1,1.9-3,2.6l22.9,23.2l-20.3,7.7
			c-9.3,3.2-11,3.7-21.8,5.7c-0.9-14.3-0.4-83.4-11.4-92.6l-0.1,87.5c-11.1-11.5-20.3-24.9-28.5-37.1l-2.8,22.3
			c1.5,8,16.3,15.2-5.2,24.7c-9.4,4.1-6.7,4.6-19.8,6.1c8.3,32.4,7.2,69.7,36.8,91.5c7.6,5.6-7.5,3.7,11.8,4.3l-17-77.7l13.1-3.2
			c12.2,10.6,23,23.2,38.6,13.7l5.6,58l-4.9,3.7c-0.8,1.2,0-0.8-1.6,5l-2.3,8.6c-0.1,0.3-0.4,2.3-0.4,1.9c-0.1-0.4-0.2,1.3-0.4,1.9
			l-7.1-0.3c-0.5,0-0.9,1.1-5.2-0.9l5.8-19.9l-8.3-5.6l-20,58.8l-5.8,0.4c-11.4,6-44-6.2-55.3-9.5c-0.4-0.1-1.6-0.5-2-0.6l10-10.5
			c12.6-7.3,26.5-17.1,40.8-20.5l-5.5-4.3c-17.2-12.5,4.9,0.1-3.3-2.2l-8.9,1.4c-11.2,3.4-18.4,8.9-29.6,6L2002.7,726.1
			L2002.7,726.1z"/>
		<g>
			<path id="_420882208" class="st24" d="M1946.5,417.3c-20.6,0.7-33.3-0.9-44.6,10.8l20,15.5c-7.7,7.4-6.5,2.4-11.8,5.8
				c-10.2,6.7,0.6-13-4,5.2l28.6,4.3l-13.8,4.7c9.9,3.4,16.8,4.7,24.3,10.2c6.5,4.7,1.2-0.3,7,6.3l-57.3-9c-6.5,9.2-3.5,0-1.3,5.8
				l0.6-0.6l-29.6-4.7c3.3,6.6,3.4,11.6,1.6,17.9c-0.2,0.6-0.8,2.3-1.1,2.9l-3,11.3l24.4-1l6.6,6.5l15.6-7.2c6,9.7,2.1,4.2-9,41
				l61.1,2.5c-23.4,3.6-31.2-11.5-61.8,33c4.8,3-3.2,3.2,7.6,2c6.1-0.7,38.4-22.1,43.9-25.5c-0.4-0.3-2.9-12.3,0.5,1.5l-0.5,15.3
				l24.8-2.1c-43.7,16.7-34.4,20-41.2,27.6l-8.3,16.9c6.2,1.8,3.2,1.5,13.3-0.9c-6.7,2.5-13,8.8-18.4,15.6
				c-18.1,22.5-21.3,8.6-24.1,19.8c-1.4,5.3,3.7,2,1.6,10.4c-2,7.9-8.6,9.3-20.9,22.5c5.8,1.1,3.3-0.1,7.8,2.3l3.4,2.3
				c0.5,0.3,1.3,1.1,1.7,1.4l3.5,3.2l9.2-3.8c3.8-8.6-2.1-0.8,10.7-9.6l19.2-16.5c-7,3.8-18.7,31.9-23.2,40.7
				c9.5,3.1-6.9-5.8,15.3,1.4c8.2,2.7,10.6-4.2,14.7-10.2l-8.2,18.9l-19.1,26.5c5.3,3.8,0.4,6.3,22.9,0.1
				c-10.3,5.2-22.7,7-27.3,12.6c-9,11.1-4.4,17.8-3.9,20.4c0.1-0.1-10,0.7,26.9-14.9l-2.4,21.8c0.9-6.5,8.3-43.8,11.4-56.7
				c2.6-11.1,5.9-19.7,7.3-30c2.7-19.4-2.2-11.6,12.4-28.5c-1.9-0.6-8.7,4.1-14.9-3.8c-3.9-5,4.3-12.7,11.3-24.7
				c19.5-33.2,0.7-11.2,26.8-42.4c-21.6,6-19.7,14-25.8,46.3c-3.8-3.7-13-2.2-2.7-25.3c17.6-39.3,4.2-20.3,46.5-43.6l20.6,11.6
				c-5.2,8.2-12.3,14.8-17.2,21.3c-15.9,21.5-36.2,37.2-21.4,49.5c6.3,5.2,8.2,1,12.9-0.5c0.7-0.2,1.7-0.6,2.3-0.8l6.3-1.7
				l10.9,55.8l-8.9-9.8c-7.9-10-6.4-13.5-10-32l-12.8,28.4l-8.4-7.2c-0.8-0.6-1.6-1.4-2.3-2.1l-4.4-3.6
				c-0.2,11.6-8.4,42.7-11.5,57.6l7.6,0.3c10.5,1.2,25.3-7.9,38.1-10.1l7.4-8.1c11.2,2.9,18.4-2.5,29.6-6l8.9-1.4
				c8.2,2.3-13.9-10.3,3.3,2.2l5.5,4.3c-14.3,3.4-28.2,13.1-40.8,20.5l-10,10.5c0.3,0.1,1.5,0.5,2,0.6c11.3,3.3,43.9,15.5,55.3,9.5
				l5.8-0.4l20-58.8l8.3,5.6l-5.8,19.9c4.3,1.9,4.7,0.8,5.2,0.9l7.1,0.3c0.2-0.6,0.4-2.3,0.4-1.9c0.1,0.4,0.4-1.6,0.4-1.9l2.3-8.6
				c1.5-5.8,0.7-3.9,1.6-5l4.9-3.7l-5.6-58c-15.6,9.5-26.4-3-38.6-13.7l-13.1,3.2l17,77.7c-19.3-0.6-4.1,1.4-11.8-4.3
				c-29.5-21.8-28.5-59.1-36.8-91.5c13.1-1.6,10.5-2,19.8-6.1c21.5-9.5,6.7-16.8,5.2-24.7l2.8-22.3c8.2,12.2,17.4,25.7,28.5,37.1
				l0.1-87.5c11,9.2,10.5,78.2,11.4,92.6c10.8-2.1,12.5-2.6,21.8-5.7l20.3-7.7l-22.9-23.2c0.9-0.6,2.7-2.2,3-2.6
				c0.2-0.2,1.1-1,1.3-1.3l7.6-11.8c11.1-17.2,20.6,10.6,33.1,3.2c0.3-0.2,1.1-0.8,1.4-1c0.4-0.3,1.2-1,1.5-1.3l5.4-5.1
				c-5.7-6.1,6.1,4.4,16.9,8.9l10.4-14.7c-20.3-7.2-36.7-3.2-55-13.3l31.2-6.9c4.1,9.2-8.7,5.2,32.9,14.1c0,1.1,0.8,2.3-4,11.5
				l-27.2,31.1l12.9,7.9c5-16.8,18.2-25,30.2-36.9c0.7,16.1-1.6,20.3-14.1,30.4l-17,11.9c15.6,18,18.6,11.5,35.8,23.4
				c7.7,5.3,7.4,10.1,16.3,13.3c7.8,2.8,21.6-5.8,28.4-10l-45.6-18.1c19.4,2.1,21.3-1.6,39.1,3.9c13.7,4.3,32.8,10.4,42.6,13.7
				l2.1-10.1c-4.9-9.6-6.5-8-16.9-12.7c9.6-10.8,18.5-15.5,10.6-29.9c-13.2,0.4-28.6,3.1-39.5-5c6.5-2.3,18.6-5.8,22.9-11.6
				c-7.1,4.1-19.4,5.5-29.3,5.9c6.3-9.4,12.5-18.7,22.8-21.4c52.1-14,28.1,3.5,60-27.7c-17.5-0.4-3.6-0.1-17.1-3.7l0.4-4.3
				c0-0.3,0.2-1.4,0.3-1.7l-4-7c10.3-10.1,31.9-28.6,36.6-41.5l-21.9,10.3l-4.8-2.9c-4,2.8-8.8,6.1-13.7,4.8
				c-3.4-1-8.3,9.7-7.7-10.3c0.7-25.2,10.6,1,10.2-16.1l-11.8,4.2c-28.9-41.9-14.3-26.8-18.9-70l-2.3-5c-0.6,0.4-1.5,1-2.2,1.4
				c-0.6,0.4-1.5,0.9-2.1,1.3c-8.3,5-13.4,7.5-22.2,9.3c0.4,8.6,1.5,14.2-2.3,21l-6.6-16.1c-20.8,12-30.4,17.5-42.9,30.4
				c-3.3,3.4-1.3,1.5-4.4,5.3c-27.5,33.5-15.9,11.7-32.3,26.7l-0.8-3.1c-3.5-11.4-6.3-4.2-0.3-11.1c8.5-10,10.3-2.4,14.6-19.1
				l-19.2,6.9c-3.2,0.1,2.7-8.3-1,0.4l-15.4,14.2c-10.2,11.3-12.3,22.4-13.9,37.8c-7.4-12.1-7.2-11.7-8-24.7l-23.7-2.4l9.5-39.7
				c2.9-16.5-15-16.4-22.7-12.9c-2.1,19.4-4.8,20.6,5.7,35.1c-32-15.4-18.3-30-50-37.8l18-9.8l-4.6-5.6
				c-9.4-9.2-41.7-20.5-49.8-20.4c2,7.3,2,10.9,5.5,13.8l5,2.5c0.4-0.7,1.9,0.7,2.7,1.1l-16.2-4l-11.4,29.7
				c5.6-1.5,35.4-10.1,39.6-9.1c11,2.8,4.4-4.9,5.5,6.3c-37.1,25.1-15.3,14.7-14.8,15.9c-2.1-11.4-11.9-4.5-23.9-4.9l15.6,23.9
				c11.4,19-11.6,21,1,14.3c4.4,19.5,1.6,14.8,0,19.2c-20-11.6-14.5-6.1-24-22.1l-5.1-10l-7.5-19.8L1946.5,417.3L1946.5,417.3z"/>
			<path id="_420882352" class="st23" d="M2389.8,197c-7,14.4-23.6,25.5-35.9,34.4c-16.6,12-24.4,25.6-50,42.6c-7.5,5-7,3-12,10.7
				l2.6-21.2l-27.7,39.8c-11,6.8-24.7,19.5-30.6,30.6l0.6-22.7c-6.3,12.1-7.9,12-5.7,19.3l10.2-64.1l-26.8,64.3
				c3.9,6,6.5-9.8,3.2,13.4l5.8-17.3c-11.1,61.2-2.8,49.3-33.4,63.4c-26.4,12.2-7,14.7-34,11.8l-3.5-12.4c-0.4-0.6-1-1.4-1.5-2
				c-0.4-0.6-1.2-1.3-1.7-1.8c-20.6-25.2-6.3-25.6-23.2-41.8c-5.9,16.4,1.1,6.5-3,21.7c-2.5,9.4-5,16.7-13.6,23
				c-15.7-9.2-13.4-5.3-17.8-20c-2.7-9.1-5.1-17.4-7.1-26.5l4.8-1.7c5.3-0.7,3.1,1,3.5,2.2l9.9-17.1l0.5,22.4
				c32.1-78.4,14.9-35.3,40.1-77.2c-1.7,24-3.2,20.5,5.9,44.8c14.6-27.1,9.9-13.5,9.9-36.6c-1.6,6.6,4.3,23.5,6.7,29.9
				c7.9-25,8.1-44.6,5.9-73.1c-10-5.3-10.2-1.7-15.4,5.3l-0.4-18.6c-25.1,57.4-15.6,27.7-39.8,65.9c-17.3-7.2-11.9-9.3-21.4-22.3
				c-5.3-18.2-22-27-25.7-50.3c-6.5,1.9-12.7-10.4-23.1-22.8c-0.8,11.6,0.5,10.9-2.8,15.6l-6.2-27.5l-6.9,16.3
				c-7.6-12.1-10.8-20-21.2-27.4c-10.2-7.2-0.8-1.4-10.7-6.2c25.1,35,28,31.2,34.2,58.5c0.7,2.9,3.1,10.9,4,12.7
				c3.7,7.9,1.1,3.9,5,7.4l-8.5,3.3l4.1,10.4l18.9,62.4c3.4,8.7,3.8,11.7,7.2,23.3c-53.9-2.1-16.5-5.9-63-14.5l-5.8-15l-4.3,13.9
				c-2.6,3.4,10,6.6-6.5,1.5l3.6-3.9c3.3-10.8-3.2-13.4-11.3-26.1c-7.5-11.6-10.1-23.2-16.4-35.2c-3.7,21.5,2,44.4,2.6,70.1
				c-5.8-2.2-15.4-5.1-19.7-8.9c-7.1-6.4-11.3-28.3-17.7-42c-5-10.8-5.1-12.1-10.7-17.8c-2.3,22.6-7.7,48.4-3.4,68l6.5,1.8
				c1.2,0.2,2,0.5,3.3,0.7l-3.7,0.8c-5.2,11.2-4.8,12.1-0.1,27L1908,341c-0.1-1.4-0.3-1.8-0.7-2.6c-0.9,7.5-2.6,24.1-6.6,30.6
				l-23.1-50.3c-6.8-5.9-5.6-2.6-26.2-2.9l23.9,53.8c-53-23.5-72.7-19-123.4-2.1l55.4-5.7l4.9,33.4l-58.8-6.9
				c19.6-8.2,82.4,31.6,86.7,50.8c5.8,6.2,1.6,5.6,23.9,6.4c-2.6,12.4-11.8,5.2-16.6,23.2c19,5.1,11.2,1.1,23.1-0.2
				c20.6-2.3,8.1-0.4,24.1,2.7l57.3,9c-5.8-6.5-0.5-1.5-7-6.3c-7.5-5.5-14.3-6.8-24.3-10.2l13.8-4.7l-28.6-4.3
				c4.6-18.3-6.1,1.5,4-5.2c5.3-3.5,4.1,1.6,11.8-5.8l-20-15.5c11.3-11.7,24-10.1,44.6-10.8l27-7.9l7.5,19.8l5.1,10
				c9.5,16,4,10.5,24,22.1c1.6-4.4,4.4,0.3,0-19.2c-12.6,6.7,10.4,4.7-1-14.3l-15.6-23.9c12,0.4,21.8-6.5,23.9,4.9
				c-0.5-1.2-22.2,9.2,14.8-15.9c-1.1-11.2,5.5-3.5-5.5-6.3c-4.2-1.1-34,7.6-39.6,9.1l11.4-29.7l16.2,4c-0.9-0.5-2.3-1.9-2.7-1.1
				l-5-2.5c-3.4-2.8-3.4-6.5-5.5-13.8c8.1-0.1,40.4,11.2,49.8,20.4l4.6,5.6l-18,9.8c31.7,7.8,18,22.5,50,37.8
				c-10.5-14.5-7.8-15.6-5.7-35.1c7.8-3.5,25.6-3.6,22.7,12.9l-9.5,39.7l23.7,2.4c0.8,13,0.6,12.5,8,24.7
				c1.5-15.3,3.6-26.5,13.9-37.8l15.4-14.2c3.6-8.7-2.2-0.2,1-0.4l19.2-6.9c-4.3,16.6-6.1,9.1-14.6,19.1c-5.9,6.9-3.2-0.3,0.3,11.1
				l0.8,3.1c16.4-15,4.8,6.7,32.3-26.7c3.1-3.8,1.1-1.9,4.4-5.3c12.6-13,22.1-18.5,42.9-30.4l6.6,16.1c3.8-6.8,2.7-12.4,2.3-21
				c8.9-1.8,14-4.3,22.2-9.3c0.6-0.4,1.5-0.9,2.1-1.3c0.6-0.4,1.6-1,2.2-1.4l2.3,5c9.6-6.3,4.4-4,5.4-18.6
				c1-16.7,3.1-15.9,16.2-30.2c2.2-2.4,3.6-4,4.7-5.2c18-19.3,11.8-18,22.1-30.9c10.8-13.6,25.4-22.3,37.1-35.8
				c6.6-7.6,9.4-12.2,16.5-20l14.4-14.6c0.3-0.2,1.5-0.3,1.8-1.1c0.2-0.8,1.1-0.8,1.8-1c17.6-31.3,37.5-60.6,47.3-102.2
				C2423.3,158.9,2426.8,161.8,2389.8,197L2389.8,197z"/>
			<path id="_420882448" class="st25" d="M1893.6,690.7l-3.5-3.2c-0.4-0.3-1.3-1.1-1.7-1.4l-3.4-2.3c-4.5-2.4-1.9-1.2-7.8-2.3
				c12.3-13.2,18.9-14.6,20.9-22.5c2.1-8.4-3-5-1.6-10.4c2.9-11.2,6,2.7,24.1-19.8c5.5-6.8,11.7-13.1,18.4-15.6
				c-10.1,2.4-7.1,2.7-13.3,0.9l8.3-16.9c6.9-7.6-2.5-10.9,41.2-27.6l-24.8,2.1l0.5-15.3c-3.4-13.8-1-1.9-0.5-1.5
				c-5.5,3.3-37.8,24.8-43.9,25.5c-10.8,1.3-2.8,1-7.6-2c30.6-44.4,38.5-29.3,61.8-33l-61.1-2.5c11.1-36.8,15-31.4,9-41l-15.6,7.2
				l-6.6-6.5l-24.4,1l3-11.3c0.2-0.6,0.9-2.3,1.1-2.9c1.8-6.2,1.7-11.2-1.6-17.9l29.6,4.7l-0.6,0.6c-2.2-5.8-5.2,3.4,1.3-5.8
				c-16-3.1-3.5-5-24.1-2.7c-11.9,1.3-4.1,5.3-23.1,0.2c4.8-18.1,13.9-10.8,16.6-23.2c-22.3-0.9-18.1-0.2-23.9-6.4
				c-26.1-8.8-152.1-24.9-189.2-30.5l176.2,53c-97.4-7.8-80.9-6-173.6,25.3c36.7-8.5,48.5-21,95.2-12.6c30.1,5.4,29.4-1.8,71.3,31.3
				l9.5,9.7c-17.3,11.2-22.8,9.4-45.3,7c-16.1-1.8-30.2-1.8-46.4-2.7l-81.8-15.6l99.2,41.2l-60.9,36.4l117.7-16.4
				c-0.8,0.5-2.2,0.1-2.6,1.2c-1.5,3.4-20.9,0.8-23.4,0.5l16.1,7.2l-3.7,18l31.8-2.1l-12.1-10.8l43.1,16.9
				c2.7,14.5,4.8,14.5-0.3,28.4c-10.8,29.4-51.2,26.3-92,47.9l-4.3,2.4c-22.7,13.3-34.2,17.2-58.9,28.2c33.7-9.7,48.4-12,83.1-18.4
				l-29,25.6c-44.7,33.5-47.3,38.1-89.1,77.1l50.7-33c2.1,13.5,3.9-17.9-3.3,9.6c51.8-15.4,72.9-22.1,118.5-46.6
				c-12.8,19-1,11.3-0.9,15.1l-7.7,19.8c8.5-4.5,11.5-6.6,18.1-15.8c5.3-7.4,5.9-11.1,12.4-17.4
				C1867.5,710.3,1884.8,703.4,1893.6,690.7L1893.6,690.7z"/>
			<path id="_420883120" class="st25" d="M2310.8,436.1c0.4,17.1-9.6-9.1-10.2,16.1c-0.5,20.1,4.3,9.3,7.7,10.3
				c4.9,1.4,9.7-1.9,13.7-4.8l4.8,2.9l21.9-10.3c-4.8,12.9-26.3,31.4-36.6,41.5l4,7c0,0.3-0.2,1.4-0.3,1.7l-0.4,4.3
				c13.5,3.6-0.4,3.3,17.1,3.7c-32,31.2-7.9,13.7-60,27.7c-10.3,2.8-16.5,12-22.8,21.4c9.9-0.5,22.2-1.8,29.3-5.9
				c-4.3,5.8-16.4,9.2-22.9,11.6c10.8,8.2,26.3,5.4,39.5,5c7.9,14.4-1,19.1-10.6,29.9c10.4,4.7,12,3.1,16.9,12.7
				c23.3-16.1,181.7,61.6,218.5,62.5l-10.3-4.7c-39.8-18.2-147-76.2-172.9-85.9c-18.1-6.7-11.5-1.1-22.5-14.4l93.2,8.6l-91.2-24.2
				c1.4-13.5-6.8-5.3,23.7-19.5c35.3-16.5,60.4-33.5,92.5-41c23.1-5.4-2.6-6.5,69.7-19.6c27.1-4.9,47.8-9.3,75.9-12.2l63-4
				c-6-5.4,3.9-1.9-10.7-5.3c-2.4-0.6-10.3-0.6-13-0.5c-26.4,1-51.9,4.6-79.8,3c-23-1.3-84.7-1.9-101.8-5.5
				c-8.9,5.2-4.6,3.7-20.8,4.9c-15,1.1-48.7,2.2-61.5,0c19.2-39,14.8-45.7,32.8-57.1l-8-0.7l5.2-36.6c2.2-21-4.1-24.1-2-30.2
				l-17.8,72.2c-7.7,15.8,2.3,3.7-10.9,12.5c-4.4,2.9-8.2,5-12.7,7.6C2329.4,427.2,2320.8,430.9,2310.8,436.1L2310.8,436.1z"/>
			<path id="_420883576" class="st26" d="M2094.9,266.4c9.5,12.9,4.1,15.1,21.4,22.3c24.2-38.2,14.7-8.5,39.8-65.9l0.4,18.6
				c5.2-7,5.4-10.6,15.4-5.3c2.2,28.5,2,48.1-5.9,73.1c-2.4-6.4-8.3-23.3-6.7-29.9c0,23.1,4.6,9.4-9.9,36.6
				c-9.1-24.3-7.7-20.7-5.9-44.8c-25.2,41.9-8-1.2-40.1,77.2l-0.5-22.4l-9.9,17.1c-0.4-1.3,1.8-2.9-3.5-2.2l-4.8,1.7
				c2,9.1,4.4,17.4,7.1,26.5c4.4,14.8,2.1,10.8,17.8,20c8.6-6.3,11-13.7,13.6-23c4.1-15.2-2.9-5.3,3-21.7
				c16.9,16.2,2.6,16.7,23.2,41.8c0.5,0.6,1.2,1.2,1.7,1.8c0.4,0.6,1.1,1.3,1.5,2l3.5,12.4c27,2.9,7.7,0.4,34-11.8
				c30.7-14.2,22.3-2.3,33.4-63.4l-5.8,17.3c3.3-23.2,0.7-7.4-3.2-13.4l-2.1,8.8l-13.3-7.6c-2.8-39.7-3.9-76.7-8.9-116.1
				c-4.8-37.3,5-38.5,31.4-92.8l-35,50.7c1.8-34.8-7.3-55.6-9.5-86.6l-3.6,47.8c2.1,69.5-12.5,77.2-47.3,128.7
				c-6.3-18.2-17.5-32.1-26.2-51.7l-10-18.7c-10-11.4-11.6-13.1-15.8-26c-8.1-5.1-47-72.6-48.3-79.1
				C2049.3,133.9,2077.3,210.9,2094.9,266.4L2094.9,266.4z"/>
			<path id="_420883360" class="st27" d="M1851.4,315.8c20.6,0.2,19.3-3.1,26.2,2.9l23.1,50.3c4-6.5,5.7-23.1,6.6-30.6
				c0.4,0.8,0.5,1.2,0.7,2.6l8.6,21.3c-4.7-15-5.1-15.8,0.1-27l3.7-0.8c-1.3-0.2-2.1-0.5-3.3-0.7l-6.5-1.8
				c-4.3-19.6,1.1-45.3,3.4-68c5.6,5.6,5.7,7,10.7,17.8c6.4,13.7,10.5,35.6,17.7,42c4.2,3.8,13.8,6.7,19.7,8.9
				c-0.6-25.7-6.3-48.6-2.6-70.1c-6.2-21.2-11.7-36.9-24.5-53.1c7.3-6.6-3.5,0.4,5.7-3.6c3.7-1.6,3.2-0.6,7-1.7
				c-2-18-15.9-26.9-26.6-44.6l-2.4-4.2c-11.2-18.9-42.7-50.7-45.6-61l-5.4-1.4l46.3,86.4c0.2-0.6,11-0.1-14.1-16.1
				c-18.2-11.6-18.1-10.2-30.5-26.4c-9.8-12.9,7.2,6.5-15.9-2.7l-16-6.3c9.4,14.7,24.1,17,31.5,29.9c6.4,11.2,31.3,129.1,35.3,147
				c-2.9,0.8-41.6-11.8-48.3-17.4l-32-40.9l11.5,36.1c-1.1-2.1,4.3,0.3-7.5-4.3l-43.2-13.1c-21.2-6.8-39.2-15.7-55.1-12.1
				c21.9,6.9,41.8,20.3,63.2,31.5L1851.4,315.8z"/>
			<path id="_420884344" class="st28" d="M2077,845.5l29.4-81.2c9.5,4.1,11,14.3,18.6,24.9l19.1,25.5l-17.7-54.1
				c15.4-2.9,28.7-6.9,43.3-12.6c7-2.7,12.1-4.6,18.7-7.8c26.5-12.9,5.4-15.9,47.6,0.1c2-5.6,2,0.3-4.9-7c-4.6-4.7-6-5.7-10.3-10.4
				c-18.4-20.5-7.1-14.7-72.4-16.4l9.2-21.1l18.3,6.5c19.1,5.8,23.4-2.5,23.4-2.5l-24.8-26.6c12.7,5.5,21.7,7.9,32.7,17.1
				c9.4,7.9,3.6-3.1,9.4,10.9c13.9-33-10.4-29.2,10.7-59.3l-39.2-11.4l-26.9-15.1l5.1,30l42.9,15.7c-14.4-3.1-25.8-6.8-38.4-6.2
				c-16.5,0.8-22.2-7.2-36.7,8.5l-3.4,4.7c-2.4,6.3,0.6,0.6-0.1,14.4c0,0.5-0.4,2.9-0.4,2.4c0-0.5-0.2,1.7-0.5,2.5l-11.1-31.3
				c0.6,23.8,1.2,55.4,7.2,79l-8-0.1c-8.4,1.9-39.6,84.3-42.5,102.7C2072.8,841.4,2074.4,841.2,2077,845.5L2077,845.5z"/>
			<path id="_420885784" class="st23" d="M1928.4,777.9l-0.8,70.7c5.3-11.7,0.9-11.9,10.4-31.8l5.8,31.3
				c5.2-97.1,17.2-85.9,20.8-111.9l-7.6-0.3c3.1-14.9,11.3-46,11.5-57.6l4.4,3.6c0.7,0.6,1.5,1.4,2.3,2.1l8.4,7.2l12.8-28.4
				c3.6,18.5,2.2,22,10,32l8.9,9.8l-10.9-55.8l-6.3,1.7c-0.6,0.2-1.7,0.6-2.3,0.8c-4.7,1.5-6.6,5.8-12.9,0.5
				c-14.8-12.2,5.5-28,21.4-49.5c4.9-6.6,12-13.1,17.2-21.3l-20.6-11.6c-42.3,23.3-29,4.3-46.5,43.6c-10.3,23.1-1.2,21.6,2.7,25.3
				c6.1-32.2,4.2-40.2,25.8-46.3c-26.2,31.2-7.3,9.2-26.8,42.4c-7.1,12-15.2,19.7-11.3,24.7c6.2,7.9,13,3.1,14.9,3.8
				c-14.6,16.8-9.7,9-12.4,28.5c-1.4,10.2-4.7,18.9-7.3,30C1936.7,734.1,1929.3,771.4,1928.4,777.9L1928.4,777.9z"/>
			<path id="_420885832" class="st26" d="M1902.8,686.8c-7.7,19.1-27.8,30.7-33.4,36.5c-13,13.4,2,4.9-24.4,25.5
				c-15.8,12.4-24.5,24.6-37.7,40.3c4.8-1.5,9.7-2.8,13-5.1l32.1-25c-11.9,3.3-10.5,10.4-20.5,20.1c-15.6,15.1-22.3,15.2-37.3,28.7
				l-37.6,27.3c8.7-0.6,25.2-9.9,34-13.9c14.2-6.5,19.2-13.3,35.7-20.8l60.2-22.2c3.9-0.9,1.9,1.4,5.4-5l11.6-2.2
				c-0.5-2.5-5.1-9.3,3.9-20.4c4.5-5.6,17-7.4,27.3-12.6c-22.5,6.3-17.7,3.7-22.9-0.1l19.1-26.5l8.2-18.9
				c-4.1,6.1-6.5,12.9-14.7,10.2c-22.2-7.3-5.8,1.7-15.3-1.4c4.5-8.8,16.2-36.9,23.2-40.7l-19.2,16.5
				C1900.7,686.1,1906.6,678.3,1902.8,686.8L1902.8,686.8z"/>
			<path id="_420885568" class="st29" d="M1959.4,262.6c6.3,12,9,23.6,16.4,35.2c8.2,12.7,14.6,15.3,11.3,26.1l-3.6,3.9
				c16.5,5.1,3.9,1.8,6.5-1.5l4.3-13.9l5.8,15c46.5,8.6,9.1,12.4,63,14.5c-3.3-11.6-3.7-14.6-7.2-23.3l-18.9-62.4l8.4,49.4
				l-28.8,7.8c-25.6-46.8-23-49-52.2-85c-5.5-6.8-13.8-16.7-16.9-24.3c-3.9,1.1-3.3,0-7,1.7c-9.2,4.1,1.7-2.9-5.7,3.6
				C1947.7,225.7,1953.3,241.4,1959.4,262.6L1959.4,262.6z"/>
			<path id="_420885616" class="st29" d="M1946.5,417.3l21.1-15.1l-13.9-29.8c18.8,3.4,21,12.6,30.3,26.5l12-38.6
				c-29.3-6.4-1-15.2-55.2-2.7c11.7,3.2-0.1-4.5,22.9,8.1l-41.8,10.3l4.7,28.3l1.7-1.6l11.6,6.7c1.6,2.5-2.5,6-4.1,7.6L1946.5,417.3
				L1946.5,417.3z"/>
		</g>
	</g>
	<rect x="2771.4" y="1802.7" class="st19" width="28.9" height="126.8"/>
	<path class="st30" d="M3509.4,1634.4h400.1c13.5,0,24.4,10.9,24.4,24.4v276.5c0,13.5-10.9,24.4-24.4,24.4h-400.1
		c-13.5,0-24.4-10.9-24.4-24.4v-276.5C3485,1645.4,3495.9,1634.4,3509.4,1634.4z"/>
	<path class="st31" d="M3509.4,1633.5h400.1c7,0,13.3,2.9,17.9,7.4c4.6,4.6,7.4,10.9,7.4,17.9v276.5c0,7-2.9,13.3-7.4,17.9
		c-4.6,4.6-10.9,7.4-17.9,7.4h-400.1c-7,0-13.3-2.9-17.9-7.4c-4.6-4.6-7.4-10.9-7.4-17.9v-276.5c0-7,2.9-13.3,7.4-17.9
		C3496.1,1636.3,3502.4,1633.5,3509.4,1633.5z M3909.5,1635.4h-400.1c-6.5,0-12.3,2.6-16.6,6.9c-4.3,4.3-6.9,10.1-6.9,16.6v276.5
		c0,6.5,2.6,12.3,6.9,16.6c4.3,4.3,10.1,6.9,16.6,6.9h400.1c6.5,0,12.3-2.6,16.6-6.9c4.3-4.3,6.9-10.1,6.9-16.6v-276.5
		c0-6.5-2.6-12.3-6.9-16.6C3921.8,1638,3916,1635.4,3909.5,1635.4z"/>
	<path class="st2" d="M3142.1,1111.9h59.3c3.3,0,6,2.7,6,6v24.2c0,3.3-2.7,6-6,6h-59.3c-3.3,0-6-2.7-6-6v-24.2
		C3136.1,1114.6,3138.8,1111.9,3142.1,1111.9z"/>
	<path class="st2" d="M3224.3,1111.9h59.3c3.3,0,6,2.7,6,6v24.2c0,3.3-2.7,6-6,6h-59.3c-3.3,0-6-2.7-6-6v-24.2
		C3218.3,1114.6,3221,1111.9,3224.3,1111.9z"/>
	<path class="st2" d="M3306.5,1111.9h59.3c3.3,0,6,2.7,6,6v24.2c0,3.3-2.7,6-6,6h-59.3c-3.3,0-6-2.7-6-6v-24.2
		C3300.5,1114.6,3303.2,1111.9,3306.5,1111.9z"/>
	<path class="st2" d="M3388.7,1111.9h59.3c3.3,0,6,2.7,6,6v24.2c0,3.3-2.7,6-6,6h-59.3c-3.3,0-6-2.7-6-6v-24.2
		C3382.8,1114.6,3385.4,1111.9,3388.7,1111.9z"/>
	<path class="st2" d="M3474.1,1111.9h59.3c3.3,0,6,2.7,6,6v24.2c0,3.3-2.7,6-6,6h-59.3c-3.3,0-6-2.7-6-6v-24.2
		C3468.1,1114.6,3470.8,1111.9,3474.1,1111.9z"/>
	<path class="st2" d="M3557.9,1111.9h59.3c3.3,0,6,2.7,6,6v24.2c0,3.3-2.7,6-6,6h-59.3c-3.3,0-6-2.7-6-6v-24.2
		C3551.9,1114.6,3554.6,1111.9,3557.9,1111.9z"/>
	<path class="st2" d="M3640.4,1111.9h59.3c3.3,0,6,2.7,6,6v24.2c0,3.3-2.7,6-6,6h-59.3c-3.3,0-6-2.7-6-6v-24.2
		C3634.4,1114.6,3637.1,1111.9,3640.4,1111.9z"/>
	<path class="st2" d="M3722.1,1111.9h59.3c3.3,0,6,2.7,6,6v24.2c0,3.3-2.7,6-6,6h-59.3c-3.3,0-6-2.7-6-6v-24.2
		C3716.1,1114.6,3718.8,1111.9,3722.1,1111.9z"/>
	<path class="st2" d="M3806.8,1111.9h59.3c3.3,0,6,2.7,6,6v24.2c0,3.3-2.7,6-6,6h-59.3c-3.3,0-6-2.7-6-6v-24.2
		C3800.8,1114.6,3803.5,1111.9,3806.8,1111.9z"/>
	<path class="st2" d="M3888.5,1111.9h59.3c3.3,0,6,2.7,6,6v24.2c0,3.3-2.7,6-6,6h-59.3c-3.3,0-6-2.7-6-6v-24.2
		C3882.5,1114.6,3885.2,1111.9,3888.5,1111.9z"/>
	<path class="st2" d="M3971,1111.9h59.3c3.3,0,6,2.7,6,6v24.2c0,3.3-2.7,6-6,6H3971c-3.3,0-6-2.7-6-6v-24.2
		C3965,1114.6,3967.7,1111.9,3971,1111.9z"/>
	<path class="st2" d="M4060.9,1111.9h59.3c3.3,0,6,2.7,6,6v24.2c0,3.3-2.7,6-6,6h-59.3c-3.3,0-6-2.7-6-6v-24.2
		C4054.9,1114.6,4057.6,1111.9,4060.9,1111.9z"/>
	<path class="st2" d="M4138.9,1111.9h59.3c3.3,0,6,2.7,6,6v24.2c0,3.3-2.7,6-6,6h-59.3c-3.3,0-6-2.7-6-6v-24.2
		C4132.9,1114.6,4135.6,1111.9,4138.9,1111.9z"/>
	<path class="st2" d="M4221.1,1111.9h59.3c3.3,0,6,2.7,6,6v24.2c0,3.3-2.7,6-6,6h-59.3c-3.3,0-6-2.7-6-6v-24.2
		C4215.1,1114.6,4217.8,1111.9,4221.1,1111.9z"/>
	<path class="st2" d="M3142.9,1162.5h55.3c3.3,0,6,2.7,6,6v51.1c0,3.3-2.7,6-6,6h-55.3c-3.3,0-6-2.7-6-6v-51.1
		C3136.9,1165.2,3139.6,1162.5,3142.9,1162.5z"/>
	<path class="st2" d="M3223.4,1162.5h55.3c3.3,0,6,2.7,6,6v51.1c0,3.3-2.7,6-6,6h-55.3c-3.3,0-6-2.7-6-6v-51.1
		C3217.4,1165.2,3220.1,1162.5,3223.4,1162.5z"/>
	<path class="st2" d="M3303.8,1162.5h55.3c3.3,0,6,2.7,6,6v51.1c0,3.3-2.7,6-6,6h-55.3c-3.3,0-6-2.7-6-6v-51.1
		C3297.9,1165.2,3300.5,1162.5,3303.8,1162.5z"/>
	<path class="st2" d="M3384.3,1162.5h55.3c3.3,0,6,2.7,6,6v51.1c0,3.3-2.7,6-6,6h-55.3c-3.3,0-6-2.7-6-6v-51.1
		C3378.3,1165.2,3381,1162.5,3384.3,1162.5z"/>
	<path class="st2" d="M3464.8,1162.5h55.3c3.3,0,6,2.7,6,6v51.1c0,3.3-2.7,6-6,6h-55.3c-3.3,0-6-2.7-6-6v-51.1
		C3458.8,1165.2,3461.5,1162.5,3464.8,1162.5z"/>
	<path class="st2" d="M3545.3,1162.5h55.3c3.3,0,6,2.7,6,6v51.1c0,3.3-2.7,6-6,6h-55.3c-3.3,0-6-2.7-6-6v-51.1
		C3539.3,1165.2,3542,1162.5,3545.3,1162.5z"/>
	<path class="st2" d="M3625.7,1162.5h55.3c3.3,0,6,2.7,6,6v51.1c0,3.3-2.7,6-6,6h-55.3c-3.3,0-6-2.7-6-6v-51.1
		C3619.8,1165.2,3622.4,1162.5,3625.7,1162.5z"/>
	<path class="st2" d="M3704.8,1162.5h55.3c3.3,0,6,2.7,6,6v51.1c0,3.3-2.7,6-6,6h-55.3c-3.3,0-6-2.7-6-6v-51.1
		C3698.8,1165.2,3701.5,1162.5,3704.8,1162.5z"/>
	<path class="st2" d="M3784.9,1162.5h55.3c3.3,0,6,2.7,6,6v51.1c0,3.3-2.7,6-6,6h-55.3c-3.3,0-6-2.7-6-6v-51.1
		C3778.9,1165.2,3781.6,1162.5,3784.9,1162.5z"/>
	<path class="st2" d="M3863.3,1162.5h55.3c3.3,0,6,2.7,6,6v51.1c0,3.3-2.7,6-6,6h-55.3c-3.3,0-6-2.7-6-6v-51.1
		C3857.4,1165.2,3860,1162.5,3863.3,1162.5z"/>
	<path class="st2" d="M3944.3,1162.5h55.3c3.3,0,6,2.7,6,6v51.1c0,3.3-2.7,6-6,6h-55.3c-3.3,0-6-2.7-6-6v-51.1
		C3938.3,1165.2,3941,1162.5,3944.3,1162.5z"/>
	<path class="st2" d="M4023.8,1162.5h55.3c3.3,0,6,2.7,6,6v51.1c0,3.3-2.7,6-6,6h-55.3c-3.3,0-6-2.7-6-6v-51.1
		C4017.8,1165.2,4020.5,1162.5,4023.8,1162.5z"/>
	<path class="st2" d="M4105.3,1162.5h55.3c3.3,0,6,2.7,6,6v51.1c0,3.3-2.7,6-6,6h-55.3c-3.3,0-6-2.7-6-6v-51.1
		C4099.3,1165.2,4102,1162.5,4105.3,1162.5z"/>
	<path class="st2" d="M4186.6,1161.4h93.2c4.3,0,7.7,3.5,7.7,7.7v48.3c0,4.3-3.5,7.7-7.7,7.7h-93.2c-4.3,0-7.7-3.5-7.7-7.7v-48.3
		C4178.9,1164.8,4182.3,1161.4,4186.6,1161.4z"/>
	<path class="st2" d="M3261.7,1238.7h55.3c3.3,0,6,2.7,6,6v51.1c0,3.3-2.7,6-6,6h-55.3c-3.3,0-6-2.7-6-6v-51.1
		C3255.8,1241.4,3258.4,1238.7,3261.7,1238.7z"/>
	<path class="st2" d="M3342.2,1238.7h55.3c3.3,0,6,2.7,6,6v51.1c0,3.3-2.7,6-6,6h-55.3c-3.3,0-6-2.7-6-6v-51.1
		C3336.2,1241.4,3338.9,1238.7,3342.2,1238.7z"/>
	<path class="st2" d="M3422.7,1238.7h55.3c3.3,0,6,2.7,6,6v51.1c0,3.3-2.7,6-6,6h-55.3c-3.3,0-6-2.7-6-6v-51.1
		C3416.7,1241.4,3419.4,1238.7,3422.7,1238.7z"/>
	<path class="st2" d="M3503.2,1238.7h55.3c3.3,0,6,2.7,6,6v51.1c0,3.3-2.7,6-6,6h-55.3c-3.3,0-6-2.7-6-6v-51.1
		C3497.2,1241.4,3499.9,1238.7,3503.2,1238.7z"/>
	<path class="st2" d="M3583.6,1238.7h55.3c3.3,0,6,2.7,6,6v51.1c0,3.3-2.7,6-6,6h-55.3c-3.3,0-6-2.7-6-6v-51.1
		C3577.7,1241.4,3580.3,1238.7,3583.6,1238.7z"/>
	<path class="st2" d="M3664.1,1238.7h55.3c3.3,0,6,2.7,6,6v51.1c0,3.3-2.7,6-6,6h-55.3c-3.3,0-6-2.7-6-6v-51.1
		C3658.1,1241.4,3660.8,1238.7,3664.1,1238.7z"/>
	<path class="st2" d="M3743.1,1238.7h55.3c3.3,0,6,2.7,6,6v51.1c0,3.3-2.7,6-6,6h-55.3c-3.3,0-6-2.7-6-6v-51.1
		C3737.2,1241.4,3739.8,1238.7,3743.1,1238.7z"/>
	<path class="st2" d="M3823.2,1238.7h55.3c3.3,0,6,2.7,6,6v51.1c0,3.3-2.7,6-6,6h-55.3c-3.3,0-6-2.7-6-6v-51.1
		C3817.3,1241.4,3819.9,1238.7,3823.2,1238.7z"/>
	<path class="st2" d="M3901.7,1238.7h55.3c3.3,0,6,2.7,6,6v51.1c0,3.3-2.7,6-6,6h-55.3c-3.3,0-6-2.7-6-6v-51.1
		C3895.7,1241.4,3898.4,1238.7,3901.7,1238.7z"/>
	<path class="st2" d="M3982.7,1238.7h55.3c3.3,0,6,2.7,6,6v51.1c0,3.3-2.7,6-6,6h-55.3c-3.3,0-6-2.7-6-6v-51.1
		C3976.7,1241.4,3979.4,1238.7,3982.7,1238.7z"/>
	<path class="st2" d="M4062.2,1238.7h55.3c3.3,0,6,2.7,6,6v51.1c0,3.3-2.7,6-6,6h-55.3c-3.3,0-6-2.7-6-6v-51.1
		C4056.2,1241.4,4058.8,1238.7,4062.2,1238.7z"/>
	<path class="st2" d="M4143.6,1238.7h55.3c3.3,0,6,2.7,6,6v51.1c0,3.3-2.7,6-6,6h-55.3c-3.3,0-6-2.7-6-6v-51.1
		C4137.6,1241.4,4140.3,1238.7,4143.6,1238.7z"/>
	<path class="st2" d="M3281.2,1317h55.3c3.3,0,6,2.7,6,6v51.1c0,3.3-2.7,6-6,6h-55.3c-3.3,0-6-2.7-6-6v-51.1
		C3275.2,1319.6,3277.9,1317,3281.2,1317z"/>
	<path class="st2" d="M3361.6,1317h55.3c3.3,0,6,2.7,6,6v51.1c0,3.3-2.7,6-6,6h-55.3c-3.3,0-6-2.7-6-6v-51.1
		C3355.7,1319.6,3358.3,1317,3361.6,1317z"/>
	<path class="st2" d="M3442.1,1317h55.3c3.3,0,6,2.7,6,6v51.1c0,3.3-2.7,6-6,6h-55.3c-3.3,0-6-2.7-6-6v-51.1
		C3436.1,1319.6,3438.8,1317,3442.1,1317z"/>
	<path class="st2" d="M3522.6,1317h55.3c3.3,0,6,2.7,6,6v51.1c0,3.3-2.7,6-6,6h-55.3c-3.3,0-6-2.7-6-6v-51.1
		C3516.6,1319.6,3519.3,1317,3522.6,1317z"/>
	<path class="st2" d="M3603.1,1317h55.3c3.3,0,6,2.7,6,6v51.1c0,3.3-2.7,6-6,6h-55.3c-3.3,0-6-2.7-6-6v-51.1
		C3597.1,1319.6,3599.8,1317,3603.1,1317z"/>
	<path class="st2" d="M3683.5,1317h55.3c3.3,0,6,2.7,6,6v51.1c0,3.3-2.7,6-6,6h-55.3c-3.3,0-6-2.7-6-6v-51.1
		C3677.6,1319.6,3680.2,1317,3683.5,1317z"/>
	<path class="st2" d="M3762.6,1317h55.3c3.3,0,6,2.7,6,6v51.1c0,3.3-2.7,6-6,6h-55.3c-3.3,0-6-2.7-6-6v-51.1
		C3756.6,1319.6,3759.3,1317,3762.6,1317z"/>
	<path class="st2" d="M3842.7,1317h55.3c3.3,0,6,2.7,6,6v51.1c0,3.3-2.7,6-6,6h-55.3c-3.3,0-6-2.7-6-6v-51.1
		C3836.7,1319.6,3839.4,1317,3842.7,1317z"/>
	<path class="st2" d="M3921.1,1317h55.3c3.3,0,6,2.7,6,6v51.1c0,3.3-2.7,6-6,6h-55.3c-3.3,0-6-2.7-6-6v-51.1
		C3915.2,1319.6,3917.8,1317,3921.1,1317z"/>
	<path class="st2" d="M4002.1,1317h55.3c3.3,0,6,2.7,6,6v51.1c0,3.3-2.7,6-6,6h-55.3c-3.3,0-6-2.7-6-6v-51.1
		C3996.1,1319.6,3998.8,1317,4002.1,1317z"/>
	<path class="st2" d="M4081.6,1317h55.3c3.3,0,6,2.7,6,6v51.1c0,3.3-2.7,6-6,6h-55.3c-3.3,0-6-2.7-6-6v-51.1
		C4075.6,1319.6,4078.3,1317,4081.6,1317z"/>
	<path class="st2" d="M4163.1,1317h55.3c3.3,0,6,2.7,6,6v51.1c0,3.3-2.7,6-6,6h-55.3c-3.3,0-6-2.7-6-6v-51.1
		C4157.1,1319.6,4159.8,1317,4163.1,1317z"/>
	<path class="st2" d="M3240.8,1395h55.3c3.3,0,6,2.7,6,6v51.1c0,3.3-2.7,6-6,6h-55.3c-3.3,0-6-2.7-6-6V1401
		C3234.8,1397.7,3237.5,1395,3240.8,1395z"/>
	<path class="st2" d="M3321.3,1395h55.3c3.3,0,6,2.7,6,6v51.1c0,3.3-2.7,6-6,6h-55.3c-3.3,0-6-2.7-6-6V1401
		C3315.3,1397.7,3318,1395,3321.3,1395z"/>
	<path class="st2" d="M3401.8,1395h55.3c3.3,0,6,2.7,6,6v51.1c0,3.3-2.7,6-6,6h-55.3c-3.3,0-6-2.7-6-6V1401
		C3395.8,1397.7,3398.5,1395,3401.8,1395z"/>
	<path class="st2" d="M3482.2,1395h55.3c3.3,0,6,2.7,6,6v51.1c0,3.3-2.7,6-6,6h-55.3c-3.3,0-6-2.7-6-6V1401
		C3476.3,1397.7,3478.9,1395,3482.2,1395z"/>
	<path class="st2" d="M3562.7,1395h55.3c3.3,0,6,2.7,6,6v51.1c0,3.3-2.7,6-6,6h-55.3c-3.3,0-6-2.7-6-6V1401
		C3556.7,1397.7,3559.4,1395,3562.7,1395z"/>
	<path class="st2" d="M3643.2,1395h55.3c3.3,0,6,2.7,6,6v51.1c0,3.3-2.7,6-6,6h-55.3c-3.3,0-6-2.7-6-6V1401
		C3637.2,1397.7,3639.9,1395,3643.2,1395z"/>
	<path class="st2" d="M3722.2,1395h55.3c3.3,0,6,2.7,6,6v51.1c0,3.3-2.7,6-6,6h-55.3c-3.3,0-6-2.7-6-6V1401
		C3716.2,1397.7,3718.9,1395,3722.2,1395z"/>
	<path class="st2" d="M3802.3,1395h55.3c3.3,0,6,2.7,6,6v51.1c0,3.3-2.7,6-6,6h-55.3c-3.3,0-6-2.7-6-6V1401
		C3796.3,1397.7,3799,1395,3802.3,1395z"/>
	<path class="st2" d="M3880.8,1395h55.3c3.3,0,6,2.7,6,6v51.1c0,3.3-2.7,6-6,6h-55.3c-3.3,0-6-2.7-6-6V1401
		C3874.8,1397.7,3877.5,1395,3880.8,1395z"/>
	<path class="st2" d="M3961.7,1395h55.3c3.3,0,6,2.7,6,6v51.1c0,3.3-2.7,6-6,6h-55.3c-3.3,0-6-2.7-6-6V1401
		C3955.8,1397.7,3958.4,1395,3961.7,1395z"/>
	<path class="st2" d="M4041.2,1395h55.3c3.3,0,6,2.7,6,6v51.1c0,3.3-2.7,6-6,6h-55.3c-3.3,0-6-2.7-6-6V1401
		C4035.2,1397.7,4037.9,1395,4041.2,1395z"/>
	<path class="st2" d="M3139.7,1478.7h55.3c3.3,0,6,2.7,6,6v51.1c0,3.3-2.7,6-6,6h-55.3c-3.3,0-6-2.7-6-6v-51.1
		C3133.7,1481.4,3136.4,1478.7,3139.7,1478.7z"/>
	<path class="st2" d="M3220.1,1478.7h55.3c3.3,0,6,2.7,6,6v51.1c0,3.3-2.7,6-6,6h-55.3c-3.3,0-6-2.7-6-6v-51.1
		C3214.2,1481.4,3216.8,1478.7,3220.1,1478.7z"/>
	<path class="st2" d="M3300.6,1478.7h55.3c3.3,0,6,2.7,6,6v51.1c0,3.3-2.7,6-6,6h-55.3c-3.3,0-6-2.7-6-6v-51.1
		C3294.6,1481.4,3297.3,1478.7,3300.6,1478.7z"/>
	<path class="st2" d="M3985.5,1478.7h55.3c3.3,0,6,2.7,6,6v51.1c0,3.3-2.7,6-6,6h-55.3c-3.3,0-6-2.7-6-6v-51.1
		C3979.5,1481.4,3982.2,1478.7,3985.5,1478.7z"/>
	<path class="st2" d="M3483,1478.7h374.7c3.9,0,7,3.1,7,7v49c0,3.9-3.1,7-7,7H3483c-3.9,0-7-3.1-7-7v-49
		C3476,1481.9,3479.2,1478.7,3483,1478.7z"/>
	<path class="st2" d="M3383.4,1478.7h72.5c3.4,0,6.2,2.8,6.2,6.2v50c0,3.4-2.8,6.2-6.2,6.2h-72.5c-3.4,0-6.2-2.8-6.2-6.2v-50
		C3377.1,1481.5,3379.9,1478.7,3383.4,1478.7z"/>
	<path class="st2" d="M3142.6,1395h72.5c3.4,0,6.2,2.8,6.2,6.2v50c0,3.4-2.8,6.2-6.2,6.2h-72.5c-3.4,0-6.2-2.8-6.2-6.2v-50
		C3136.4,1397.8,3139.2,1395,3142.6,1395z"/>
	<path class="st2" d="M3885.9,1479h72.5c3.4,0,6.2,2.8,6.2,6.2v50c0,3.4-2.8,6.2-6.2,6.2h-72.5c-3.4,0-6.2-2.8-6.2-6.2v-50
		C3879.7,1481.8,3882.5,1479,3885.9,1479z"/>
	<path class="st2" d="M4063.6,1514.4h57.6c2.8,0,5,2.2,5,5v22.7c0,2.8-2.2,5-5,5h-57.6c-2.8,0-5-2.2-5-5v-22.7
		C4058.6,1516.6,4060.9,1514.4,4063.6,1514.4z"/>
	<path class="st2" d="M4144.3,1514.4h57.6c2.8,0,5,2.2,5,5v22.7c0,2.8-2.2,5-5,5h-57.6c-2.8,0-5-2.2-5-5v-22.7
		C4139.4,1516.6,4141.6,1514.4,4144.3,1514.4z"/>
	<path class="st2" d="M4223.2,1514.4h57.6c2.8,0,5,2.2,5,5v22.7c0,2.8-2.2,5-5,5h-57.6c-2.8,0-5-2.2-5-5v-22.7
		C4218.2,1516.6,4220.5,1514.4,4223.2,1514.4z"/>
	<path class="st2" d="M4144.3,1474.9h57.6c2.8,0,5,2.2,5,5v22.7c0,2.8-2.2,5-5,5h-57.6c-2.8,0-5-2.2-5-5v-22.7
		C4139.4,1477.1,4141.6,1474.9,4144.3,1474.9z"/>
	<path class="st2" d="M4126.4,1395h154.7c3.4,0,6.2,2.8,6.2,6.2v50.3c0,3.4-2.8,6.2-6.2,6.2h-154.7c-3.4,0-6.2-2.8-6.2-6.2v-50.3
		C4120.2,1397.8,4123,1395,4126.4,1395z"/>
	<path class="st2" d="M3144.3,1317h109.1c4.5,0,8.2,3.7,8.2,8.2v46.4c0,4.5-3.7,8.2-8.2,8.2h-109.1c-4.5,0-8.2-3.7-8.2-8.2v-46.4
		C3136.1,1320.6,3139.8,1317,3144.3,1317z"/>
	<path class="st2" d="M3141.1,1238.2h95.9c2.9,0,5.2,2.3,5.2,5.2v52.4c0,2.9-2.3,5.2-5.2,5.2h-95.9c-2.9,0-5.2-2.3-5.2-5.2v-52.4
		C3135.8,1240.6,3138.2,1238.2,3141.1,1238.2z"/>
	<path class="st2" d="M4243,1238.7h38.9h0.9c2.7,0,4.9,2.2,4.9,4.9v0.9v52.8v78.1c0,3.2-2.6,5.7-5.7,5.7H4243
		c-3.2,0-5.7-2.6-5.7-5.7v-73.2H4223c-2.7,0-4.9-2.2-4.9-4.9v-53.7c0-2.7,2.2-4.9,4.9-4.9L4243,1238.7L4243,1238.7z"/>
	<path class="st30" d="M3510.7,1635.4h398.9c13.4,0,24.3,10.9,24.3,24.3v275.7c0,13.4-10.9,24.3-24.3,24.3h-398.9
		c-13.4,0-24.3-10.9-24.3-24.3v-275.7C3486.3,1646.3,3497.2,1635.4,3510.7,1635.4z"/>
	<path class="st31" d="M3510.7,1634.5h398.9c7,0,13.3,2.8,17.9,7.4c4.6,4.6,7.4,10.9,7.4,17.9v275.7c0,7-2.8,13.3-7.4,17.9
		s-10.9,7.4-17.9,7.4h-398.9c-7,0-13.3-2.8-17.9-7.4c-4.6-4.6-7.4-10.9-7.4-17.9v-275.7c0-7,2.8-13.3,7.4-17.9
		C3497.4,1637.3,3503.7,1634.5,3510.7,1634.5z M3909.6,1636.4h-398.9c-6.4,0-12.3,2.6-16.5,6.9c-4.2,4.2-6.9,10.1-6.9,16.5v275.7
		c0,6.4,2.6,12.3,6.9,16.5s10.1,6.9,16.5,6.9h398.9c6.4,0,12.3-2.6,16.5-6.9c4.2-4.2,6.9-10.1,6.9-16.5v-275.7
		c0-6.4-2.6-12.3-6.9-16.5C3921.9,1639,3916,1636.4,3909.6,1636.4z"/>
	<path class="st30" d="M3511.9,1636.4h397.7c13.4,0,24.3,10.9,24.3,24.3v274.9c0,13.4-10.9,24.3-24.3,24.3h-397.7
		c-13.4,0-24.3-10.9-24.3-24.3v-274.9C3487.7,1647.2,3498.5,1636.4,3511.9,1636.4z"/>
	<path class="st31" d="M3511.9,1635.4h397.7c6.9,0,13.2,2.8,17.8,7.4c4.6,4.6,7.4,10.9,7.4,17.8v274.9c0,6.9-2.8,13.2-7.4,17.8l0,0
		l0,0c-4.6,4.6-10.9,7.4-17.8,7.4h-397.7c-6.9,0-13.2-2.8-17.8-7.4l0,0l0,0c-4.6-4.6-7.4-10.9-7.4-17.8v-274.9
		c0-6.9,2.8-13.2,7.4-17.8C3498.7,1638.3,3505,1635.4,3511.9,1635.4L3511.9,1635.4z M3909.6,1637.3h-397.7c-6.4,0-12.2,2.6-16.5,6.9
		c-4.2,4.2-6.9,10.1-6.9,16.5v274.9c0,6.4,2.6,12.2,6.8,16.5l0,0c4.2,4.2,10.1,6.8,16.5,6.8h397.7c6.4,0,12.2-2.6,16.5-6.8l0,0
		c4.2-4.2,6.8-10.1,6.8-16.5v-274.9c0-6.4-2.6-12.2-6.9-16.5C3921.9,1639.9,3916.1,1637.3,3909.6,1637.3z"/>
	<path class="st30" d="M3513.3,1637.4h396.5c13.4,0,24.2,10.8,24.2,24.2v274c0,13.4-10.8,24.2-24.2,24.2h-396.5
		c-13.4,0-24.2-10.8-24.2-24.2v-274C3489.1,1648.2,3499.9,1637.4,3513.3,1637.4z"/>
	<path class="st31" d="M3513.3,1636.5h396.5c6.9,0,13.2,2.8,17.7,7.4l0,0c4.6,4.6,7.4,10.8,7.4,17.7v274c0,6.9-2.8,13.2-7.4,17.7
		l0,0c-4.6,4.6-10.8,7.4-17.7,7.4h-396.5c-6.9,0-13.2-2.8-17.7-7.4l0,0c-4.6-4.6-7.4-10.8-7.4-17.7v-274c0-6.9,2.8-13.2,7.4-17.7
		l0,0C3500.1,1639.3,3506.4,1636.5,3513.3,1636.5z M3909.7,1638.3h-396.5c-6.4,0-12.2,2.6-16.4,6.8c-4.2,4.2-6.8,10-6.8,16.4v274
		c0,6.4,2.6,12.2,6.8,16.4c4.2,4.2,10,6.8,16.4,6.8h396.5c6.4,0,12.2-2.6,16.4-6.8c4.2-4.2,6.8-10,6.8-16.4v-274
		c0-6.4-2.6-12.2-6.8-16.4C3921.9,1641,3916.1,1638.3,3909.7,1638.3z"/>
	<path class="st30" d="M3514.7,1638.5h395.1c13.3,0,24.1,10.8,24.1,24.1v273.1c0,13.3-10.8,24.1-24.1,24.1h-395.1
		c-13.3,0-24.1-10.8-24.1-24.1v-273.1C3490.6,1649.3,3501.4,1638.5,3514.7,1638.5z"/>
	<path class="st31" d="M3514.7,1637.5h395.1c6.9,0,13.2,2.8,17.7,7.4l0,0c4.5,4.5,7.4,10.8,7.4,17.7v273.1c0,6.9-2.8,13.2-7.4,17.7
		c-4.5,4.5-10.8,7.4-17.7,7.4h-395.1c-6.9,0-13.2-2.8-17.7-7.4c-4.5-4.5-7.4-10.8-7.4-17.7v-273.1c0-6.9,2.8-13.2,7.4-17.7l0,0
		C3501.5,1640.4,3507.8,1637.5,3514.7,1637.5L3514.7,1637.5z M3909.8,1639.4h-395.1c-6.4,0-12.2,2.6-16.4,6.8v0
		c-4.2,4.2-6.8,10-6.8,16.4v273.1c0,6.4,2.6,12.2,6.8,16.4c4.2,4.2,10,6.8,16.4,6.8h395.1c6.4,0,12.2-2.6,16.4-6.8
		c4.2-4.2,6.8-10,6.8-16.4v-273.1c0-6.4-2.6-12.2-6.8-16.4v0C3922,1642,3916.2,1639.4,3909.8,1639.4z"/>
	<path class="st19" d="M3139.4,1108.6h59.3c3.3,0,6,2.7,6,6v24.2c0,3.3-2.7,6-6,6h-59.3c-3.3,0-6-2.7-6-6v-24.2
		C3133.5,1111.3,3136.1,1108.6,3139.4,1108.6z"/>
	<path class="st19" d="M3221.7,1108.6h59.3c3.3,0,6,2.7,6,6v24.2c0,3.3-2.7,6-6,6h-59.3c-3.3,0-6-2.7-6-6v-24.2
		C3215.7,1111.3,3218.3,1108.6,3221.7,1108.6z"/>
	<path class="st19" d="M3303.9,1108.6h59.3c3.3,0,6,2.7,6,6v24.2c0,3.3-2.7,6-6,6h-59.3c-3.3,0-6-2.7-6-6v-24.2
		C3297.9,1111.3,3300.6,1108.6,3303.9,1108.6z"/>
	<path class="st19" d="M3386.1,1108.6h59.3c3.3,0,6,2.7,6,6v24.2c0,3.3-2.7,6-6,6h-59.3c-3.3,0-6-2.7-6-6v-24.2
		C3380.1,1111.3,3382.8,1108.6,3386.1,1108.6z"/>
	<path class="st19" d="M3471.4,1108.6h59.3c3.3,0,6,2.7,6,6v24.2c0,3.3-2.7,6-6,6h-59.3c-3.3,0-6-2.7-6-6v-24.2
		C3465.4,1111.3,3468.1,1108.6,3471.4,1108.6z"/>
	<path class="st19" d="M3555.2,1108.6h59.3c3.3,0,6,2.7,6,6v24.2c0,3.3-2.7,6-6,6h-59.3c-3.3,0-6-2.7-6-6v-24.2
		C3549.3,1111.3,3551.9,1108.6,3555.2,1108.6z"/>
	<path class="st19" d="M3637.7,1108.6h59.3c3.3,0,6,2.7,6,6v24.2c0,3.3-2.7,6-6,6h-59.3c-3.3,0-6-2.7-6-6v-24.2
		C3631.7,1111.3,3634.4,1108.6,3637.7,1108.6z"/>
	<path class="st19" d="M3719.4,1108.6h59.3c3.3,0,6,2.7,6,6v24.2c0,3.3-2.7,6-6,6h-59.3c-3.3,0-6-2.7-6-6v-24.2
		C3713.5,1111.3,3716.1,1108.6,3719.4,1108.6z"/>
	<path class="st19" d="M3804.1,1108.6h59.3c3.3,0,6,2.7,6,6v24.2c0,3.3-2.7,6-6,6h-59.3c-3.3,0-6-2.7-6-6v-24.2
		C3798.2,1111.3,3800.8,1108.6,3804.1,1108.6z"/>
	<path class="st19" d="M3885.9,1108.6h59.3c3.3,0,6,2.7,6,6v24.2c0,3.3-2.7,6-6,6h-59.3c-3.3,0-6-2.7-6-6v-24.2
		C3879.9,1111.3,3882.6,1108.6,3885.9,1108.6z"/>
	<path class="st19" d="M3968.3,1108.6h59.3c3.3,0,6,2.7,6,6v24.2c0,3.3-2.7,6-6,6h-59.3c-3.3,0-6-2.7-6-6v-24.2
		C3962.3,1111.3,3965,1108.6,3968.3,1108.6z"/>
	<path class="st19" d="M4058.3,1108.6h59.3c3.3,0,6,2.7,6,6v24.2c0,3.3-2.7,6-6,6h-59.3c-3.3,0-6-2.7-6-6v-24.2
		C4052.3,1111.3,4055,1108.6,4058.3,1108.6z"/>
	<path class="st19" d="M4136.2,1108.6h59.3c3.3,0,6,2.7,6,6v24.2c0,3.3-2.7,6-6,6h-59.3c-3.3,0-6-2.7-6-6v-24.2
		C4130.3,1111.3,4132.9,1108.6,4136.2,1108.6z"/>
	<path class="st19" d="M4218.5,1108.6h59.3c3.3,0,6,2.7,6,6v24.2c0,3.3-2.7,6-6,6h-59.3c-3.3,0-6-2.7-6-6v-24.2
		C4212.5,1111.3,4215.2,1108.6,4218.5,1108.6z"/>
	<path class="st19" d="M3140.2,1159.2h55.3c3.3,0,6,2.7,6,6v51.1c0,3.3-2.7,6-6,6h-55.3c-3.3,0-6-2.7-6-6v-51.1
		C3134.3,1161.9,3136.9,1159.2,3140.2,1159.2z"/>
	<path class="st19" d="M3220.7,1159.2h55.3c3.3,0,6,2.7,6,6v51.1c0,3.3-2.7,6-6,6h-55.3c-3.3,0-6-2.7-6-6v-51.1
		C3214.7,1161.9,3217.4,1159.2,3220.7,1159.2z"/>
	<path class="st19" d="M3301.2,1159.2h55.3c3.3,0,6,2.7,6,6v51.1c0,3.3-2.7,6-6,6h-55.3c-3.3,0-6-2.7-6-6v-51.1
		C3295.2,1161.9,3297.9,1159.2,3301.2,1159.2z"/>
	<path class="st19" d="M3381.7,1159.2h55.3c3.3,0,6,2.7,6,6v51.1c0,3.3-2.7,6-6,6h-55.3c-3.3,0-6-2.7-6-6v-51.1
		C3375.7,1161.9,3378.4,1159.2,3381.7,1159.2z"/>
	<path class="st19" d="M3462.1,1159.2h55.3c3.3,0,6,2.7,6,6v51.1c0,3.3-2.7,6-6,6h-55.3c-3.3,0-6-2.7-6-6v-51.1
		C3456.2,1161.9,3458.8,1159.2,3462.1,1159.2z"/>
	<path class="st19" d="M3542.6,1159.2h55.3c3.3,0,6,2.7,6,6v51.1c0,3.3-2.7,6-6,6h-55.3c-3.3,0-6-2.7-6-6v-51.1
		C3536.6,1161.9,3539.3,1159.2,3542.6,1159.2z"/>
	<path class="st19" d="M3623.1,1159.2h55.3c3.3,0,6,2.7,6,6v51.1c0,3.3-2.7,6-6,6h-55.3c-3.3,0-6-2.7-6-6v-51.1
		C3617.1,1161.9,3619.8,1159.2,3623.1,1159.2z"/>
	<path class="st19" d="M3702.1,1159.2h55.3c3.3,0,6,2.7,6,6v51.1c0,3.3-2.7,6-6,6h-55.3c-3.3,0-6-2.7-6-6v-51.1
		C3696.1,1161.9,3698.8,1159.2,3702.1,1159.2z"/>
	<path class="st19" d="M3782.2,1159.2h55.3c3.3,0,6,2.7,6,6v51.1c0,3.3-2.7,6-6,6h-55.3c-3.3,0-6-2.7-6-6v-51.1
		C3776.2,1161.9,3778.9,1159.2,3782.2,1159.2z"/>
	<path class="st19" d="M3860.7,1159.2h55.3c3.3,0,6,2.7,6,6v51.1c0,3.3-2.7,6-6,6h-55.3c-3.3,0-6-2.7-6-6v-51.1
		C3854.7,1161.9,3857.4,1159.2,3860.7,1159.2z"/>
	<path class="st19" d="M3941.7,1159.2h55.3c3.3,0,6,2.7,6,6v51.1c0,3.3-2.7,6-6,6h-55.3c-3.3,0-6-2.7-6-6v-51.1
		C3935.7,1161.9,3938.4,1159.2,3941.7,1159.2z"/>
	<path class="st19" d="M4021.1,1159.2h55.3c3.3,0,6,2.7,6,6v51.1c0,3.3-2.7,6-6,6h-55.3c-3.3,0-6-2.7-6-6v-51.1
		C4015.1,1161.9,4017.8,1159.2,4021.1,1159.2z"/>
	<path class="st19" d="M4102.6,1159.2h55.3c3.3,0,6,2.7,6,6v51.1c0,3.3-2.7,6-6,6h-55.3c-3.3,0-6-2.7-6-6v-51.1
		C4096.6,1161.9,4099.3,1159.2,4102.6,1159.2z"/>
	<path class="st19" d="M4183.9,1158.1h93.2c4.3,0,7.7,3.5,7.7,7.7v48.3c0,4.3-3.5,7.7-7.7,7.7h-93.2c-4.3,0-7.7-3.5-7.7-7.7v-48.3
		C4176.2,1161.6,4179.7,1158.1,4183.9,1158.1z"/>
	<path class="st19" d="M3259.1,1235.5h55.3c3.3,0,6,2.7,6,6v51.1c0,3.3-2.7,6-6,6h-55.3c-3.3,0-6-2.7-6-6v-51.1
		C3253.1,1238.1,3255.8,1235.5,3259.1,1235.5z"/>
	<path class="st19" d="M3339.6,1235.5h55.3c3.3,0,6,2.7,6,6v51.1c0,3.3-2.7,6-6,6h-55.3c-3.3,0-6-2.7-6-6v-51.1
		C3333.6,1238.1,3336.3,1235.5,3339.6,1235.5z"/>
	<path class="st19" d="M3420,1235.5h55.3c3.3,0,6,2.7,6,6v51.1c0,3.3-2.7,6-6,6H3420c-3.3,0-6-2.7-6-6v-51.1
		C3414.1,1238.1,3416.7,1235.5,3420,1235.5z"/>
	<path class="st19" d="M3500.5,1235.5h55.3c3.3,0,6,2.7,6,6v51.1c0,3.3-2.7,6-6,6h-55.3c-3.3,0-6-2.7-6-6v-51.1
		C3494.5,1238.1,3497.2,1235.5,3500.5,1235.5z"/>
	<path class="st19" d="M3581,1235.5h55.3c3.3,0,6,2.7,6,6v51.1c0,3.3-2.7,6-6,6H3581c-3.3,0-6-2.7-6-6v-51.1
		C3575,1238.1,3577.7,1235.5,3581,1235.5z"/>
	<path class="st19" d="M3661.4,1235.5h55.3c3.3,0,6,2.7,6,6v51.1c0,3.3-2.7,6-6,6h-55.3c-3.3,0-6-2.7-6-6v-51.1
		C3655.5,1238.1,3658.1,1235.5,3661.4,1235.5z"/>
	<path class="st19" d="M3740.5,1235.5h55.3c3.3,0,6,2.7,6,6v51.1c0,3.3-2.7,6-6,6h-55.3c-3.3,0-6-2.7-6-6v-51.1
		C3734.5,1238.1,3737.2,1235.5,3740.5,1235.5z"/>
	<path class="st19" d="M3820.6,1235.5h55.3c3.3,0,6,2.7,6,6v51.1c0,3.3-2.7,6-6,6h-55.3c-3.3,0-6-2.7-6-6v-51.1
		C3814.6,1238.1,3817.3,1235.5,3820.6,1235.5z"/>
	<path class="st19" d="M3899.1,1235.5h55.3c3.3,0,6,2.7,6,6v51.1c0,3.3-2.7,6-6,6h-55.3c-3.3,0-6-2.7-6-6v-51.1
		C3893.1,1238.1,3895.8,1235.5,3899.1,1235.5z"/>
	<path class="st19" d="M3980,1235.5h55.3c3.3,0,6,2.7,6,6v51.1c0,3.3-2.7,6-6,6H3980c-3.3,0-6-2.7-6-6v-51.1
		C3974,1238.1,3976.7,1235.5,3980,1235.5z"/>
	<path class="st19" d="M4059.5,1235.5h55.3c3.3,0,6,2.7,6,6v51.1c0,3.3-2.7,6-6,6h-55.3c-3.3,0-6-2.7-6-6v-51.1
		C4053.5,1238.1,4056.2,1235.5,4059.5,1235.5z"/>
	<path class="st19" d="M4141,1235.5h55.3c3.3,0,6,2.7,6,6v51.1c0,3.3-2.7,6-6,6H4141c-3.3,0-6-2.7-6-6v-51.1
		C4135,1238.1,4137.7,1235.5,4141,1235.5z"/>
	<path class="st19" d="M3278.5,1313.7h55.3c3.3,0,6,2.7,6,6v51.1c0,3.3-2.7,6-6,6h-55.3c-3.3,0-6-2.7-6-6v-51.1
		C3272.5,1316.4,3275.2,1313.7,3278.5,1313.7z"/>
	<path class="st19" d="M3359,1313.7h55.3c3.3,0,6,2.7,6,6v51.1c0,3.3-2.7,6-6,6H3359c-3.3,0-6-2.7-6-6v-51.1
		C3353,1316.4,3355.7,1313.7,3359,1313.7z"/>
	<path class="st19" d="M3439.5,1313.7h55.3c3.3,0,6,2.7,6,6v51.1c0,3.3-2.7,6-6,6h-55.3c-3.3,0-6-2.7-6-6v-51.1
		C3433.5,1316.4,3436.2,1313.7,3439.5,1313.7z"/>
	<path class="st19" d="M3519.9,1313.7h55.3c3.3,0,6,2.7,6,6v51.1c0,3.3-2.7,6-6,6h-55.3c-3.3,0-6-2.7-6-6v-51.1
		C3514,1316.4,3516.6,1313.7,3519.9,1313.7z"/>
	<path class="st19" d="M3600.4,1313.7h55.3c3.3,0,6,2.7,6,6v51.1c0,3.3-2.7,6-6,6h-55.3c-3.3,0-6-2.7-6-6v-51.1
		C3594.4,1316.4,3597.1,1313.7,3600.4,1313.7z"/>
	<path class="st19" d="M3680.9,1313.7h55.3c3.3,0,6,2.7,6,6v51.1c0,3.3-2.7,6-6,6h-55.3c-3.3,0-6-2.7-6-6v-51.1
		C3674.9,1316.4,3677.6,1313.7,3680.9,1313.7z"/>
	<path class="st19" d="M3759.9,1313.7h55.3c3.3,0,6,2.7,6,6v51.1c0,3.3-2.7,6-6,6h-55.3c-3.3,0-6-2.7-6-6v-51.1
		C3753.9,1316.4,3756.6,1313.7,3759.9,1313.7z"/>
	<path class="st19" d="M3840,1313.7h55.3c3.3,0,6,2.7,6,6v51.1c0,3.3-2.7,6-6,6H3840c-3.3,0-6-2.7-6-6v-51.1
		C3834,1316.4,3836.7,1313.7,3840,1313.7z"/>
	<path class="st19" d="M3918.5,1313.7h55.3c3.3,0,6,2.7,6,6v51.1c0,3.3-2.7,6-6,6h-55.3c-3.3,0-6-2.7-6-6v-51.1
		C3912.5,1316.4,3915.2,1313.7,3918.5,1313.7z"/>
	<path class="st19" d="M3999.5,1313.7h55.3c3.3,0,6,2.7,6,6v51.1c0,3.3-2.7,6-6,6h-55.3c-3.3,0-6-2.7-6-6v-51.1
		C3993.5,1316.4,3996.2,1313.7,3999.5,1313.7z"/>
	<path class="st19" d="M4078.9,1313.7h55.3c3.3,0,6,2.7,6,6v51.1c0,3.3-2.7,6-6,6h-55.3c-3.3,0-6-2.7-6-6v-51.1
		C4073,1316.4,4075.6,1313.7,4078.9,1313.7z"/>
	<path class="st19" d="M4160.4,1313.7h55.3c3.3,0,6,2.7,6,6v51.1c0,3.3-2.7,6-6,6h-55.3c-3.3,0-6-2.7-6-6v-51.1
		C4154.4,1316.4,4157.1,1313.7,4160.4,1313.7z"/>
	<path class="st19" d="M3238.2,1391.8h55.3c3.3,0,6,2.7,6,6v51.1c0,3.3-2.7,6-6,6h-55.3c-3.3,0-6-2.7-6-6v-51.1
		C3232.2,1394.4,3234.9,1391.8,3238.2,1391.8z"/>
	<path class="st19" d="M3318.6,1391.8h55.3c3.3,0,6,2.7,6,6v51.1c0,3.3-2.7,6-6,6h-55.3c-3.3,0-6-2.7-6-6v-51.1
		C3312.7,1394.4,3315.3,1391.8,3318.6,1391.8z"/>
	<path class="st19" d="M3399.1,1391.8h55.3c3.3,0,6,2.7,6,6v51.1c0,3.3-2.7,6-6,6h-55.3c-3.3,0-6-2.7-6-6v-51.1
		C3393.1,1394.4,3395.8,1391.8,3399.1,1391.8z"/>
	<path class="st19" d="M3479.6,1391.8h55.3c3.3,0,6,2.7,6,6v51.1c0,3.3-2.7,6-6,6h-55.3c-3.3,0-6-2.7-6-6v-51.1
		C3473.6,1394.4,3476.3,1391.8,3479.6,1391.8z"/>
	<path class="st19" d="M3560,1391.8h55.3c3.3,0,6,2.7,6,6v51.1c0,3.3-2.7,6-6,6H3560c-3.3,0-6-2.7-6-6v-51.1
		C3554.1,1394.4,3556.7,1391.8,3560,1391.8z"/>
	<path class="st19" d="M3640.5,1391.8h55.3c3.3,0,6,2.7,6,6v51.1c0,3.3-2.7,6-6,6h-55.3c-3.3,0-6-2.7-6-6v-51.1
		C3634.5,1394.4,3637.2,1391.8,3640.5,1391.8z"/>
	<path class="st19" d="M3719.6,1391.8h55.3c3.3,0,6,2.7,6,6v51.1c0,3.3-2.7,6-6,6h-55.3c-3.3,0-6-2.7-6-6v-51.1
		C3713.6,1394.4,3716.2,1391.8,3719.6,1391.8z"/>
	<path class="st19" d="M3799.6,1391.8h55.3c3.3,0,6,2.7,6,6v51.1c0,3.3-2.7,6-6,6h-55.3c-3.3,0-6-2.7-6-6v-51.1
		C3793.7,1394.4,3796.3,1391.8,3799.6,1391.8z"/>
	<path class="st19" d="M3878.1,1391.8h55.3c3.3,0,6,2.7,6,6v51.1c0,3.3-2.7,6-6,6h-55.3c-3.3,0-6-2.7-6-6v-51.1
		C3872.1,1394.4,3874.8,1391.8,3878.1,1391.8z"/>
	<path class="st19" d="M3959.1,1391.8h55.3c3.3,0,6,2.7,6,6v51.1c0,3.3-2.7,6-6,6h-55.3c-3.3,0-6-2.7-6-6v-51.1
		C3953.1,1394.4,3955.8,1391.8,3959.1,1391.8z"/>
	<path class="st19" d="M4038.6,1391.8h55.3c3.3,0,6,2.7,6,6v51.1c0,3.3-2.7,6-6,6h-55.3c-3.3,0-6-2.7-6-6v-51.1
		C4032.6,1394.4,4035.3,1391.8,4038.6,1391.8z"/>
	<path class="st19" d="M3137,1475.5h55.3c3.3,0,6,2.7,6,6v51.1c0,3.3-2.7,6-6,6H3137c-3.3,0-6-2.7-6-6v-51.1
		C3131,1478.1,3133.7,1475.5,3137,1475.5z"/>
	<path class="st19" d="M3217.5,1475.5h55.3c3.3,0,6,2.7,6,6v51.1c0,3.3-2.7,6-6,6h-55.3c-3.3,0-6-2.7-6-6v-51.1
		C3211.5,1478.1,3214.2,1475.5,3217.5,1475.5z"/>
	<path class="st19" d="M3298,1475.5h55.3c3.3,0,6,2.7,6,6v51.1c0,3.3-2.7,6-6,6H3298c-3.3,0-6-2.7-6-6v-51.1
		C3292,1478.1,3294.7,1475.5,3298,1475.5z"/>
	<path class="st19" d="M3982.9,1475.5h55.3c3.3,0,6,2.7,6,6v51.1c0,3.3-2.7,6-6,6h-55.3c-3.3,0-6-2.7-6-6v-51.1
		C3976.9,1478.1,3979.6,1475.5,3982.9,1475.5z"/>
	<path class="st19" d="M3480.4,1475.5h374.7c3.9,0,7,3.1,7,7v49c0,3.9-3.1,7-7,7h-374.7c-3.9,0-7-3.1-7-7v-49
		C3473.4,1478.6,3476.5,1475.5,3480.4,1475.5z"/>
	<path class="st19" d="M3380.7,1475.5h72.5c3.4,0,6.2,2.8,6.2,6.2v50c0,3.4-2.8,6.2-6.2,6.2h-72.5c-3.4,0-6.2-2.8-6.2-6.2v-50
		C3374.5,1478.3,3377.3,1475.5,3380.7,1475.5z"/>
	<path class="st19" d="M3140,1391.8h72.5c3.4,0,6.2,2.8,6.2,6.2v50c0,3.4-2.8,6.2-6.2,6.2H3140c-3.4,0-6.2-2.8-6.2-6.2v-50
		C3133.7,1394.5,3136.5,1391.8,3140,1391.8z"/>
	<path class="st19" d="M3883.3,1475.7h72.5c3.4,0,6.2,2.8,6.2,6.2v50c0,3.4-2.8,6.2-6.2,6.2h-72.5c-3.4,0-6.2-2.8-6.2-6.2v-50
		C3877,1478.5,3879.8,1475.7,3883.3,1475.7z"/>
	<path class="st19" d="M4061,1511.1h57.6c2.8,0,5,2.2,5,5v22.7c0,2.8-2.2,5-5,5H4061c-2.8,0-5-2.2-5-5v-22.7
		C4056,1513.3,4058.2,1511.1,4061,1511.1z"/>
	<path class="st19" d="M4141.7,1511.1h57.6c2.8,0,5,2.2,5,5v22.7c0,2.8-2.2,5-5,5h-57.6c-2.8,0-5-2.2-5-5v-22.7
		C4136.7,1513.3,4138.9,1511.1,4141.7,1511.1z"/>
	<path class="st19" d="M4220.5,1511.1h57.6c2.8,0,5,2.2,5,5v22.7c0,2.8-2.2,5-5,5h-57.6c-2.8,0-5-2.2-5-5v-22.7
		C4215.6,1513.3,4217.8,1511.1,4220.5,1511.1z"/>
	<path class="st19" d="M4141.7,1471.6h57.6c2.8,0,5,2.2,5,5v22.7c0,2.8-2.2,5-5,5h-57.6c-2.8,0-5-2.2-5-5v-22.7
		C4136.7,1473.9,4138.9,1471.6,4141.7,1471.6z"/>
	<path class="st19" d="M4123.8,1391.8h154.7c3.4,0,6.2,2.8,6.2,6.2v50.3c0,3.4-2.8,6.2-6.2,6.2h-154.7c-3.4,0-6.2-2.8-6.2-6.2V1398
		C4117.5,1394.5,4120.3,1391.8,4123.8,1391.8z"/>
	<path class="st19" d="M3141.6,1313.7h109.1c4.5,0,8.2,3.7,8.2,8.2v46.4c0,4.5-3.7,8.2-8.2,8.2h-109.1c-4.5,0-8.2-3.7-8.2-8.2v-46.4
		C3133.4,1317.4,3137.1,1313.7,3141.6,1313.7z"/>
	<path class="st19" d="M3138.4,1235h95.9c2.9,0,5.2,2.3,5.2,5.2v52.4c0,2.9-2.3,5.2-5.2,5.2h-95.9c-2.9,0-5.2-2.3-5.2-5.2v-52.4
		C3133.2,1237.3,3135.5,1235,3138.4,1235z"/>
	<path class="st19" d="M4240.3,1235.5h38.9h0.9c2.7,0,4.9,2.2,4.9,4.9v0.9v52.8v78.1c0,3.2-2.6,5.7-5.7,5.7h-38.9
		c-3.2,0-5.7-2.6-5.7-5.7v-73.2h-14.3c-2.7,0-4.9-2.2-4.9-4.9v-53.7c0-2.7,2.2-4.9,4.9-4.9H4240.3L4240.3,1235.5z"/>
	<path class="st30" d="M3517.3,1640.5H3910c13.2,0,24,10.7,24,24v271.4c0,13.2-10.7,24-24,24h-392.6c-13.2,0-24-10.7-24-24v-271.4
		C3493.4,1651.2,3504.1,1640.5,3517.3,1640.5z"/>
	<path class="st31" d="M3517.3,1639.6H3910c6.8,0,13.1,2.8,17.6,7.3l0,0c4.5,4.5,7.3,10.7,7.3,17.6v271.4c0,6.8-2.8,13.1-7.3,17.6
		l0,0l0,0c-4.5,4.5-10.7,7.3-17.6,7.3h-392.6c-6.8,0-13.1-2.8-17.6-7.3l0,0l0,0c-4.5-4.5-7.3-10.7-7.3-17.6v-271.4
		c0-6.8,2.8-13.1,7.3-17.6l0,0C3504.3,1642.4,3510.5,1639.6,3517.3,1639.6L3517.3,1639.6z M3910,1641.4h-392.6
		c-6.3,0-12.1,2.6-16.3,6.8v0c-4.2,4.2-6.8,9.9-6.8,16.3v271.4c0,6.3,2.6,12.1,6.8,16.3l0,0c4.2,4.2,9.9,6.8,16.3,6.8H3910
		c6.3,0,12.1-2.6,16.3-6.8l0,0c4.2-4.2,6.8-9.9,6.8-16.3v-271.4c0-6.3-2.6-12.1-6.8-16.3v0C3922,1644,3916.3,1641.4,3910,1641.4z"/>
	<path class="st30" d="M3516.2,1639.6h393.7c13.3,0,24,10.8,24,24v272.1c0,13.3-10.8,24-24,24h-393.7c-13.3,0-24-10.8-24-24v-272.1
		C3492.1,1650.4,3502.9,1639.6,3516.2,1639.6z"/>
	<path class="st31" d="M3516.2,1638.7h393.7c6.9,0,13.1,2.8,17.6,7.3l0,0l0,0c4.5,4.5,7.3,10.8,7.3,17.6v272.1
		c0,6.9-2.8,13.1-7.3,17.6l0,0l0,0c-4.5,4.5-10.8,7.3-17.6,7.3h-393.7c-6.9,0-13.1-2.8-17.6-7.3l0,0l0,0c-4.5-4.5-7.3-10.8-7.3-17.6
		v-272.1c0-6.9,2.8-13.1,7.3-17.6l0,0l0,0C3503.1,1641.5,3509.3,1638.7,3516.2,1638.7L3516.2,1638.7z M3909.9,1640.6h-393.7
		c-6.3,0-12.1,2.6-16.3,6.8l0,0c-4.2,4.2-6.8,10-6.8,16.3v272.1c0,6.3,2.6,12.1,6.8,16.3l0,0c4.2,4.2,10,6.8,16.3,6.8h393.7
		c6.3,0,12.1-2.6,16.3-6.8l0,0c4.2-4.2,6.8-10,6.8-16.3v-272.1c0-6.3-2.6-12.1-6.8-16.3l0,0
		C3922,1643.2,3916.2,1640.6,3909.9,1640.6z"/>
	<path class="st30" d="M3515.6,1639.2h394.2c13.3,0,24.1,10.8,24.1,24.1v272.5c0,13.3-10.8,24.1-24.1,24.1h-394.2
		c-13.3,0-24.1-10.8-24.1-24.1v-272.5C3491.6,1650,3502.4,1639.2,3515.6,1639.2z"/>
	<path class="st31" d="M3515.6,1638.3h394.2c6.9,0,13.1,2.8,17.7,7.3c4.5,4.5,7.3,10.8,7.3,17.7v272.5c0,6.9-2.8,13.1-7.3,17.7
		c-4.5,4.5-10.8,7.3-17.7,7.3h-394.2c-6.9,0-13.1-2.8-17.7-7.3c-4.5-4.5-7.3-10.8-7.3-17.7v-272.5c0-6.9,2.8-13.1,7.3-17.7
		C3502.5,1641.1,3508.8,1638.3,3515.6,1638.3z M3909.9,1640.2h-394.2c-6.4,0-12.1,2.6-16.3,6.8c-4.2,4.2-6.8,10-6.8,16.3v272.5
		c0,6.4,2.6,12.1,6.8,16.3c4.2,4.2,10,6.8,16.3,6.8h394.2c6.4,0,12.1-2.6,16.3-6.8c4.2-4.2,6.8-10,6.8-16.3v-272.5
		c0-6.4-2.6-12.1-6.8-16.3C3922,1642.8,3916.2,1640.2,3909.9,1640.2z"/>
	<path class="st19" d="M3201.5,968.1h1016.6c1.3,0,2.4,1.1,2.4,2.4v44.7c0,1.3-1.1,2.4-2.4,2.4H3201.5c-1.3,0-2.4-1.1-2.4-2.4v-44.7
		C3199.1,969.2,3200.2,968.1,3201.5,968.1z"/>
</g>
</svg>
